<svg width="362" height="251" viewBox="0 0 362 251" fill="none" xmlns="http://www.w3.org/2000/svg">
<path d="M0.133341 219.833L311.921 399.843L499.867 291.332L188.079 111.323L0.133341 219.833Z" fill="#01002B" stroke="#93C5FD" stroke-width="0.133333"/>
<path d="M311.923 395.781L492.83 291.333L188.082 115.387L7.1724 219.832L311.923 395.781Z" fill="#A8453E" stroke="#93C5FD" stroke-width="0.133333"/>
<mask id="path-3-inside-1_59_567" fill="white">
<path d="M253.43 360.534L309.697 328.047L368.183 361.813L311.913 394.299L253.43 360.534ZM188.721 258.203L240.615 288.163L184.348 320.649L132.453 290.687L188.721 258.203ZM362.662 217.7L308.044 249.232L256.151 219.272L310.768 187.739L362.662 217.7ZM377.127 289.118L431.743 257.584L490.227 291.35L435.609 322.882L377.127 289.118ZM372.996 291.502L431.481 325.266L372.31 359.429L313.827 325.663L372.996 291.502ZM312.173 251.617L366.789 220.083L427.613 255.2L372.996 286.733L312.173 251.617ZM244.745 285.779L192.85 255.818L252.022 221.656L303.915 251.617L244.745 285.779ZM305.569 325.663L249.3 358.15L188.477 323.034L244.745 290.546L305.569 325.663ZM248.874 288.163L308.044 254.001L368.868 289.118L309.697 323.279L248.874 288.163ZM366.815 215.327L366.803 215.307L366.791 215.315L310.768 182.969L124.194 290.687L311.913 399.068L498.487 291.35L366.815 215.327Z"/>
</mask>
<path d="M253.43 360.534L309.697 328.047L368.183 361.813L311.913 394.299L253.43 360.534ZM188.721 258.203L240.615 288.163L184.348 320.649L132.453 290.687L188.721 258.203ZM362.662 217.7L308.044 249.232L256.151 219.272L310.768 187.739L362.662 217.7ZM377.127 289.118L431.743 257.584L490.227 291.35L435.609 322.882L377.127 289.118ZM372.996 291.502L431.481 325.266L372.31 359.429L313.827 325.663L372.996 291.502ZM312.173 251.617L366.789 220.083L427.613 255.2L372.996 286.733L312.173 251.617ZM244.745 285.779L192.85 255.818L252.022 221.656L303.915 251.617L244.745 285.779ZM305.569 325.663L249.3 358.15L188.477 323.034L244.745 290.546L305.569 325.663ZM248.874 288.163L308.044 254.001L368.868 289.118L309.697 323.279L248.874 288.163ZM366.815 215.327L366.803 215.307L366.791 215.315L310.768 182.969L124.194 290.687L311.913 399.068L498.487 291.35L366.815 215.327Z" fill="#DBB1AE"/>
<path d="M309.697 328.047L309.63 327.932L309.697 327.893L309.764 327.932L309.697 328.047ZM368.183 361.813L368.249 361.697L368.449 361.813L368.249 361.928L368.183 361.813ZM311.913 394.299L311.98 394.415L311.913 394.453L311.847 394.415L311.913 394.299ZM188.721 258.203L188.655 258.088L188.721 258.049L188.788 258.088L188.721 258.203ZM240.615 288.163L240.682 288.048L240.882 288.163L240.682 288.279L240.615 288.163ZM184.348 320.649L184.415 320.764L184.348 320.803L184.281 320.764L184.348 320.649ZM132.453 290.687L132.387 290.803L132.187 290.687L132.387 290.572L132.453 290.687ZM308.044 249.232L308.111 249.347L308.044 249.386L307.978 249.347L308.044 249.232ZM256.151 219.272L256.084 219.387L255.884 219.272L256.084 219.156L256.151 219.272ZM310.768 187.739L310.701 187.623L310.768 187.585L310.835 187.623L310.768 187.739ZM431.743 257.584L431.676 257.468L431.743 257.43L431.809 257.468L431.743 257.584ZM490.227 291.35L490.294 291.234L490.494 291.35L490.294 291.465L490.227 291.35ZM435.609 322.882L435.675 322.998L435.609 323.036L435.542 322.998L435.609 322.882ZM431.481 325.266L431.547 325.151L431.747 325.266L431.547 325.382L431.481 325.266ZM372.31 359.429L372.377 359.544L372.31 359.583L372.244 359.544L372.31 359.429ZM313.827 325.663L313.76 325.779L313.56 325.663L313.76 325.548L313.827 325.663ZM366.789 220.083L366.723 219.967L366.789 219.929L366.856 219.967L366.789 220.083ZM427.613 255.2L427.679 255.084L427.879 255.2L427.679 255.315L427.613 255.2ZM372.996 286.733L373.063 286.848L372.996 286.887L372.93 286.848L372.996 286.733ZM192.85 255.818L192.784 255.934L192.584 255.818L192.784 255.703L192.85 255.818ZM252.022 221.656L251.955 221.54L252.022 221.502L252.088 221.54L252.022 221.656ZM303.915 251.617L303.982 251.501L304.182 251.617L303.982 251.732L303.915 251.617ZM249.3 358.15L249.367 358.265L249.3 358.304L249.234 358.265L249.3 358.15ZM188.477 323.034L188.41 323.149L188.21 323.034L188.41 322.918L188.477 323.034ZM244.745 290.546L244.678 290.431L244.745 290.392L244.812 290.431L244.745 290.546ZM248.874 288.163L248.807 288.279L248.607 288.163L248.807 288.048L248.874 288.163ZM308.044 254.001L307.978 253.885L308.044 253.847L308.111 253.885L308.044 254.001ZM368.868 289.118L368.934 289.002L369.134 289.118L368.934 289.233L368.868 289.118ZM309.697 323.279L309.764 323.395L309.697 323.433L309.63 323.395L309.697 323.279ZM366.803 215.307L366.731 215.195L366.846 215.122L366.916 215.238L366.803 215.307ZM366.791 215.315L366.862 215.427L366.794 215.471L366.724 215.43L366.791 215.315ZM310.768 182.969L310.701 182.853L310.768 182.815L310.835 182.853L310.768 182.969ZM124.194 290.687L124.128 290.803L123.928 290.687L124.128 290.572L124.194 290.687ZM311.913 399.068L311.98 399.184L311.913 399.222L311.847 399.184L311.913 399.068ZM498.487 291.35L498.554 291.234L498.754 291.35L498.554 291.465L498.487 291.35ZM253.364 360.418L309.63 327.932L309.764 328.163L253.497 360.649L253.364 360.418ZM309.764 327.932L368.249 361.697L368.116 361.928L309.63 328.163L309.764 327.932ZM368.249 361.928L311.98 394.415L311.847 394.184L368.116 361.697L368.249 361.928ZM311.847 394.415L253.364 360.649L253.497 360.418L311.98 394.184L311.847 394.415ZM188.788 258.088L240.682 288.048L240.548 288.279L188.655 258.319L188.788 258.088ZM240.682 288.279L184.415 320.764L184.281 320.533L240.548 288.048L240.682 288.279ZM184.281 320.764L132.387 290.803L132.52 290.572L184.415 320.533L184.281 320.764ZM132.387 290.572L188.655 258.088L188.788 258.319L132.52 290.803L132.387 290.572ZM362.728 217.815L308.111 249.347L307.978 249.116L362.595 217.584L362.728 217.815ZM307.978 249.347L256.084 219.387L256.217 219.156L308.111 249.116L307.978 249.347ZM256.084 219.156L310.701 187.623L310.835 187.854L256.217 219.387L256.084 219.156ZM310.835 187.623L362.728 217.584L362.595 217.815L310.701 187.854L310.835 187.623ZM377.06 289.002L431.676 257.468L431.809 257.699L377.193 289.233L377.06 289.002ZM431.809 257.468L490.294 291.234L490.16 291.465L431.676 257.699L431.809 257.468ZM490.294 291.465L435.675 322.998L435.542 322.767L490.16 291.234L490.294 291.465ZM435.542 322.998L377.06 289.233L377.193 289.002L435.675 322.767L435.542 322.998ZM373.063 291.386L431.547 325.151L431.414 325.382L372.93 291.617L373.063 291.386ZM431.547 325.382L372.377 359.544L372.244 359.313L431.414 325.151L431.547 325.382ZM372.244 359.544L313.76 325.779L313.894 325.548L372.377 359.313L372.244 359.544ZM313.76 325.548L372.93 291.386L373.063 291.617L313.894 325.779L313.76 325.548ZM312.106 251.501L366.723 219.967L366.856 220.198L312.24 251.732L312.106 251.501ZM366.856 219.967L427.679 255.084L427.546 255.315L366.723 220.198L366.856 219.967ZM427.679 255.315L373.063 286.848L372.93 286.617L427.546 255.084L427.679 255.315ZM372.93 286.848L312.107 251.732L312.24 251.501L373.063 286.617L372.93 286.848ZM244.678 285.895L192.784 255.934L192.917 255.703L244.812 285.664L244.678 285.895ZM192.784 255.703L251.955 221.54L252.088 221.771L192.917 255.934L192.784 255.703ZM252.088 221.54L303.982 251.501L303.849 251.732L251.955 221.771L252.088 221.54ZM303.982 251.732L244.812 285.895L244.678 285.664L303.849 251.501L303.982 251.732ZM305.636 325.779L249.367 358.265L249.234 358.034L305.503 325.548L305.636 325.779ZM249.234 358.265L188.41 323.149L188.544 322.918L249.367 358.034L249.234 358.265ZM188.41 322.918L244.678 290.431L244.812 290.662L188.544 323.149L188.41 322.918ZM244.812 290.431L305.636 325.548L305.503 325.779L244.678 290.662L244.812 290.431ZM248.807 288.048L307.978 253.885L308.111 254.116L248.94 288.279L248.807 288.048ZM308.111 253.885L368.934 289.002L368.801 289.233L307.978 254.116L308.111 253.885ZM368.934 289.233L309.764 323.395L309.63 323.164L368.801 289.002L368.934 289.233ZM309.63 323.395L248.807 288.279L248.94 288.048L309.764 323.164L309.63 323.395ZM366.701 215.396L366.689 215.377L366.916 215.238L366.928 215.257L366.701 215.396ZM366.874 215.42L366.862 215.427L366.719 215.202L366.731 215.195L366.874 215.42ZM366.724 215.43L310.701 183.084L310.835 182.853L366.857 215.199L366.724 215.43ZM310.835 183.084L124.261 290.803L124.128 290.572L310.701 182.853L310.835 183.084ZM124.261 290.572L311.98 398.953L311.847 399.184L124.128 290.803L124.261 290.572ZM311.847 398.953L498.42 291.234L498.554 291.465L311.98 399.184L311.847 398.953ZM498.42 291.465L366.748 215.442L366.881 215.211L498.554 291.234L498.42 291.465Z" fill="#93C5FD" mask="url(#path-3-inside-1_59_567)"/>
<mask id="path-5-inside-2_59_567" fill="white">
<path d="M52.167 159.634V163.364C52.2843 164.396 53.0592 165.475 54.5367 166.319C56.5546 167.492 59.2991 167.938 61.6217 167.586C62.606 167.445 63.5212 167.164 64.272 166.718L106.357 142.414C107.46 141.805 107.976 140.961 108.023 140.092L108.046 136.456L105.372 136.668C102.51 135.143 98.3578 135.002 95.9409 136.409L60.2834 156.983L54.3964 160.385L54.2791 159.634H52.167Z"/>
</mask>
<path d="M52.167 159.634V163.364C52.2843 164.396 53.0592 165.475 54.5367 166.319C56.5546 167.492 59.2991 167.938 61.6217 167.586C62.606 167.445 63.5212 167.164 64.272 166.718L106.357 142.414C107.46 141.805 107.976 140.961 108.023 140.092L108.046 136.456L105.372 136.668C102.51 135.143 98.3578 135.002 95.9409 136.409L60.2834 156.983L54.3964 160.385L54.2791 159.634H52.167Z" fill="#C7784C"/>
<path d="M52.167 163.364L52.0345 163.379L52.0337 163.371V163.364H52.167ZM54.5367 166.319L54.6028 166.203L54.6037 166.203L54.5367 166.319ZM61.6217 167.586L61.6018 167.454L61.6029 167.454L61.6217 167.586ZM64.272 166.718L64.2039 166.603L64.2054 166.602L64.272 166.718ZM106.357 142.414L106.29 142.299L106.292 142.298L106.357 142.414ZM108.023 140.092L108.156 140.093L108.156 140.099L108.023 140.092ZM108.046 136.456L108.035 136.323L108.18 136.312L108.179 136.457L108.046 136.456ZM105.372 136.668L105.382 136.801L105.343 136.804L105.309 136.785L105.372 136.668ZM95.9409 136.409L96.008 136.524L96.0075 136.524L95.9409 136.409ZM60.2834 156.983L60.2167 156.868L60.2168 156.868L60.2834 156.983ZM54.3964 160.385L54.4631 160.5L54.2947 160.597L54.2647 160.405L54.3964 160.385ZM54.2791 159.634V159.5H54.3933L54.4109 159.613L54.2791 159.634ZM52.3003 159.634V163.364H52.0337V159.634H52.3003ZM52.2995 163.349C52.4103 164.324 53.1474 165.372 54.6028 166.203L54.4706 166.434C52.971 165.578 52.1582 164.468 52.0345 163.379L52.2995 163.349ZM54.6037 166.203C56.5928 167.36 59.3063 167.802 61.6018 167.454L61.6417 167.718C59.292 168.074 56.5163 167.623 54.4697 166.434L54.6037 166.203ZM61.6029 167.454C62.5749 167.315 63.4721 167.038 64.2039 166.603L64.3401 166.832C63.5703 167.29 62.6371 167.576 61.6405 167.718L61.6029 167.454ZM64.2054 166.602L106.29 142.299L106.424 142.53L64.3387 166.833L64.2054 166.602ZM106.292 142.298C107.363 141.706 107.846 140.899 107.89 140.085L108.156 140.099C108.106 141.023 107.556 141.904 106.421 142.531L106.292 142.298ZM107.89 140.091L107.913 136.455L108.179 136.457L108.156 140.093L107.89 140.091ZM108.056 136.589L105.382 136.801L105.361 136.535L108.035 136.323L108.056 136.589ZM105.309 136.785C103.899 136.034 102.166 135.622 100.485 135.572C98.8037 135.523 97.1884 135.837 96.008 136.524L95.8738 136.294C97.1102 135.574 98.7793 135.255 100.493 135.306C102.209 135.356 103.983 135.777 105.434 136.55L105.309 136.785ZM96.0075 136.524L60.3501 157.099L60.2168 156.868L95.8743 136.294L96.0075 136.524ZM60.3501 157.099L54.4631 160.5L54.3297 160.269L60.2167 156.868L60.3501 157.099ZM54.2647 160.405L54.1474 159.654L54.4109 159.613L54.5281 160.364L54.2647 160.405ZM54.2791 159.767H52.167V159.5H54.2791V159.767Z" fill="#93C5FD" mask="url(#path-5-inside-2_59_567)"/>
<mask id="path-7-inside-3_59_567" fill="white">
<path d="M52.167 159.634V163.364C52.2843 164.396 53.0592 165.475 54.5367 166.319C56.5546 167.492 59.2992 167.938 61.6217 167.586V156.983H60.2834L54.3964 160.385L54.2791 159.634H52.167Z"/>
</mask>
<path d="M52.167 159.634V163.364C52.2843 164.396 53.0592 165.475 54.5367 166.319C56.5546 167.492 59.2992 167.938 61.6217 167.586V156.983H60.2834L54.3964 160.385L54.2791 159.634H52.167Z" fill="#DFCFB5"/>
<path d="M52.167 163.364L52.0345 163.379L52.0337 163.371V163.364H52.167ZM54.5367 166.319L54.6028 166.203L54.6037 166.203L54.5367 166.319ZM61.6217 167.586H61.7551V167.7L61.6417 167.718L61.6217 167.586ZM61.6217 156.983V156.85H61.7551V156.983H61.6217ZM60.2834 156.983L60.2167 156.868L60.2477 156.85H60.2834V156.983ZM54.3964 160.385L54.4631 160.5L54.2947 160.597L54.2647 160.405L54.3964 160.385ZM54.2791 159.634V159.5H54.3933L54.4109 159.613L54.2791 159.634ZM52.3003 159.634V163.364H52.0337V159.634H52.3003ZM52.2995 163.349C52.4103 164.324 53.1474 165.372 54.6028 166.203L54.4706 166.434C52.971 165.578 52.1582 164.468 52.0345 163.379L52.2995 163.349ZM54.6037 166.203C56.5929 167.36 59.3063 167.802 61.6018 167.454L61.6417 167.718C59.2921 168.074 56.5163 167.623 54.4697 166.434L54.6037 166.203ZM61.4884 167.586V156.983H61.7551V167.586H61.4884ZM61.6217 157.117H60.2834V156.85H61.6217V157.117ZM60.3501 157.099L54.4631 160.5L54.3297 160.269L60.2167 156.868L60.3501 157.099ZM54.2647 160.405L54.1474 159.654L54.4109 159.613L54.5281 160.364L54.2647 160.405ZM54.2791 159.767H52.167V159.5H54.2791V159.767Z" fill="#93C5FD" mask="url(#path-7-inside-3_59_567)"/>
<mask id="path-9-inside-4_59_567" fill="white">
<path d="M64.2715 163.207L106.366 138.903C108.861 137.463 108.547 134.948 105.667 133.285V133.284C102.786 131.621 98.4295 131.441 95.9348 132.882L53.8401 157.185C51.3455 158.625 51.659 161.141 54.5394 162.803C57.4199 164.466 61.7768 164.647 64.2715 163.207Z"/>
</mask>
<path d="M64.2715 163.207L106.366 138.903C108.861 137.463 108.547 134.948 105.667 133.285V133.284C102.786 131.621 98.4295 131.441 95.9348 132.882L53.8401 157.185C51.3455 158.625 51.659 161.141 54.5394 162.803C57.4199 164.466 61.7768 164.647 64.2715 163.207Z" fill="white"/>
<path d="M106.366 138.903L106.3 138.788L106.3 138.788L106.366 138.903ZM105.667 133.285L105.6 133.4L105.534 133.362V133.285H105.667ZM105.667 133.284L105.734 133.168L105.8 133.207V133.284H105.667ZM95.9348 132.882L95.8682 132.766L95.9348 132.882ZM53.8401 157.185L53.9068 157.3L53.9068 157.3L53.8401 157.185ZM64.2048 163.091L106.3 138.788L106.433 139.019L64.3381 163.322L64.2048 163.091ZM106.3 138.788C107.515 138.086 108.018 137.143 107.9 136.194C107.78 135.235 107.021 134.221 105.6 133.4L105.734 133.17C107.193 134.012 108.031 135.087 108.165 136.161C108.3 137.246 107.712 138.281 106.433 139.019L106.3 138.788ZM105.534 133.285V133.284H105.8V133.285H105.534ZM105.6 133.399C104.182 132.581 102.394 132.124 100.651 132.052C98.9058 131.98 97.2203 132.293 96.0015 132.997L95.8682 132.766C97.1441 132.03 98.8843 131.713 100.662 131.786C102.44 131.859 104.271 132.324 105.734 133.168L105.6 133.399ZM96.0015 132.997L53.9068 157.3L53.7735 157.069L95.8682 132.766L96.0015 132.997ZM53.9068 157.3C52.6912 158.002 52.1883 158.946 52.3064 159.894C52.4258 160.853 53.1849 161.868 54.6061 162.688L54.4728 162.919C53.0135 162.076 52.1756 161.002 52.0418 159.927C51.9067 158.842 52.4944 157.808 53.7735 157.069L53.9068 157.3ZM54.6061 162.688C56.0245 163.507 57.8121 163.963 59.5557 164.035C61.3005 164.108 62.986 163.795 64.2048 163.091L64.3381 163.322C63.0622 164.059 61.322 164.376 59.5446 164.302C57.766 164.228 55.9348 163.763 54.4728 162.919L54.6061 162.688Z" fill="#93C5FD" mask="url(#path-9-inside-4_59_567)"/>
<path d="M253.805 154.089L253.79 154.08L253.789 154.079L253.778 154.072L188.691 116.494L8.86151 220.04L234.922 350.505L414.75 246.961L253.805 154.089Z" fill="#60A5FA" stroke="#93C5FD" stroke-width="0.133333"/>
<path d="M51.797 139.73V117.241L48.5685 118.103L48.518 117.981L174.652 45.1082L174.66 45.1038L174.668 45.1015L206.107 36.7111L220.283 28.5213L220.338 28.4894L220.372 28.5431L258.678 88.4523L258.688 88.4687V88.4882V90.7081L261.799 91.8344L261.799 91.8334L261.809 91.8392L330.713 131.363L330.82 131.176L330.851 131.121L330.907 131.149L365.77 148.224L365.807 148.242V148.283V151.495L370.989 154.467L370.933 154.587L365.811 152.732V185.134L414.817 213.428V130.574L188.7 0.0769501L8.79421 103.668V164.556L51.797 139.73Z" fill="url(#paint0_linear_59_567)" stroke="#93C5FD" stroke-width="0.133333"/>
<path d="M365.811 184.866V213.358L414.817 241.652V213.16L365.811 184.866ZM8.79469 164.288V214.257L51.7975 189.877V170.189V139.461L8.79469 164.288Z" fill="url(#paint1_linear_59_567)" stroke="#93C5FD" stroke-width="0.133333"/>
<path d="M256.435 89.6787L177.997 44.3913L51.9971 117.187L130.436 162.473L256.435 89.6787Z" fill="#3B82F6" stroke="#93C5FD" stroke-width="0.133333"/>
<path d="M256.502 89.7944L130.503 162.589V256.497L256.502 183.702V89.7944Z" fill="#1E3A8A" stroke="#93C5FD" stroke-width="0.133333"/>
<path d="M165.323 169.684L137.926 185.502V247.854L165.323 232.036V169.684Z" fill="#F7F7FD" stroke="#93C5FD" stroke-width="0.133333"/>
<path d="M130.369 256.497V162.589L51.9304 117.303V211.21L130.369 256.497Z" fill="#2563EB" stroke="#93C5FD" stroke-width="0.133333"/>
<path d="M72.9621 145.676L62.5764 139.694V200.017L72.9621 206.001V145.676Z" fill="#F7F7FD" stroke="#93C5FD" stroke-width="0.133333"/>
<mask id="path-19-inside-5_59_567" fill="white">
<path d="M77.2246 148.069V208.546L87.7425 214.606V154.128L77.2246 148.069Z"/>
</mask>
<path d="M77.2246 148.069V208.546L87.7425 214.606V154.128L77.2246 148.069Z" fill="#F7F7FD"/>
<path d="M77.2246 208.546L77.158 208.662L77.0913 208.623V208.546H77.2246ZM87.7425 214.606H87.8758V214.837L87.676 214.722L87.7425 214.606ZM87.7425 154.128L87.8091 154.013L87.8758 154.051V154.128H87.7425ZM77.3579 148.069V208.546H77.0913V148.069H77.3579ZM77.2912 208.431L87.8091 214.491L87.676 214.722L77.158 208.662L77.2912 208.431ZM87.6092 214.606V154.128H87.8758V214.606H87.6092ZM87.676 154.244L77.1581 148.185L77.2912 147.954L87.8091 154.013L87.676 154.244Z" fill="#93C5FD" mask="url(#path-19-inside-5_59_567)"/>
<path d="M102.392 162.657L92.0061 156.674V216.998L102.392 222.981V162.657Z" fill="#F7F7FD" stroke="#93C5FD" stroke-width="0.133333"/>
<path d="M117.106 171.147L106.721 165.164V225.487L117.106 231.47V171.147Z" fill="#F7F7FD" stroke="#93C5FD" stroke-width="0.133333"/>
<path d="M378.887 159.627L269.841 97.0767L185.134 145.96L294.18 208.51L378.887 159.627Z" fill="white" stroke="#93C5FD" stroke-width="0.133333"/>
<path d="M365.774 152.018L281.067 200.901V294.884L365.774 246.001V152.018Z" fill="#2563EB" stroke="#93C5FD" stroke-width="0.133333"/>
<path d="M341.933 192.114L304.067 213.594V254.885L341.933 233.406V192.114Z" fill="white" stroke="#93C5FD" stroke-width="0.133333"/>
<path d="M280.837 295.284V201.3L171.79 138.751V232.733L280.837 295.284Z" fill="#3B82F6" stroke="#93C5FD" stroke-width="0.133333"/>
<mask id="path-27-inside-6_59_567" fill="white">
<path d="M273.377 284.434L179.25 230.091V167.872L273.377 222.216V284.434Z"/>
</mask>
<path d="M273.377 284.434L179.25 230.091V167.872L273.377 222.216V284.434Z" fill="#F7F7FD"/>
<path d="M179.25 230.091L179.183 230.206L179.116 230.167V230.091H179.25ZM179.25 167.872H179.116V167.641L179.316 167.756L179.25 167.872ZM273.377 222.216L273.444 222.101L273.51 222.139V222.216H273.377ZM273.31 284.549L179.183 230.206L179.316 229.975L273.444 284.318L273.31 284.549ZM179.116 230.091V167.872H179.383V230.091H179.116ZM179.316 167.756L273.444 222.101L273.31 222.332L179.183 167.987L179.316 167.756ZM273.51 222.216V284.434H273.244V222.216H273.51Z" fill="#93C5FD" mask="url(#path-27-inside-6_59_567)"/>
<mask id="path-29-inside-7_59_567" fill="white">
<path d="M171.724 150.938V148.828L171.732 148.833L171.734 150.932L171.724 150.938Z"/>
</mask>
<path d="M171.724 150.938V148.828L171.732 148.833L171.734 150.932L171.724 150.938Z" fill="#013BA1"/>
<path d="M171.724 148.828H171.59V148.588L171.794 148.715L171.724 148.828ZM171.732 148.833L171.803 148.72L171.866 148.759L171.866 148.833L171.732 148.833ZM171.734 150.932L171.867 150.932L171.867 151.011L171.798 151.049L171.734 150.932ZM171.59 150.938V148.828H171.857V150.938H171.59ZM171.794 148.715L171.803 148.72L171.662 148.946L171.653 148.941L171.794 148.715ZM171.866 148.833L171.867 150.932L171.6 150.932L171.599 148.833L171.866 148.833ZM171.798 151.049L171.788 151.054L171.659 150.821L171.669 150.816L171.798 151.049Z" fill="#93C5FD" mask="url(#path-29-inside-7_59_567)"/>
<path d="M174.711 45.2289L49.0209 117.845L94.1562 105.799L219.846 33.1827L174.711 45.2289Z" fill="#5598E9" stroke="#93C5FD" stroke-width="0.133333"/>
<path d="M258.528 92.874L220.294 33.0772L94.2754 105.883L132.51 165.68L258.528 92.874Z" fill="#3F461D" stroke="#93C5FD" stroke-width="0.133333"/>
<path d="M132.556 165.654L258.556 92.8583V88.6039L132.556 161.398V165.654Z" fill="#1E40AF" stroke="#93C5FD" stroke-width="0.133333"/>
<path d="M91.092 117.998L91.1354 117.988L91.161 118.025L105.469 138.306L113.371 135.995L94.1522 105.938L54.1046 116.627L54.1038 116.627L52.0341 117.209L63.881 124.048L91.092 117.998Z" fill="#1E3A8A" stroke="#93C5FD" stroke-width="0.133333"/>
<mask id="path-35-inside-8_59_567" fill="white">
<path d="M51.8671 126.787L51.8638 117.186L63.8702 124.118L51.8671 126.787Z"/>
</mask>
<path d="M51.8671 126.787L51.8638 117.186L63.8702 124.118L51.8671 126.787Z" fill="#1E3A8A"/>
<path d="M51.8638 117.186L51.7304 117.186L51.7304 116.955L51.9304 117.071L51.8638 117.186ZM63.8702 124.118L63.9368 124.002L64.2335 124.174L63.8991 124.248L63.8702 124.118ZM51.7337 126.787L51.7304 117.186L51.9971 117.186L52.0004 126.787L51.7337 126.787ZM51.9304 117.071L63.9368 124.002L63.8035 124.233L51.7971 117.302L51.9304 117.071ZM63.8991 124.248L51.896 126.917L51.8381 126.657L63.8412 123.988L63.8991 124.248Z" fill="#93C5FD" mask="url(#path-35-inside-8_59_567)"/>
<mask id="path-37-inside-9_59_567" fill="white">
<path d="M54.0864 116.562L94.0065 105.348L94.1819 105.623V105.861L54.0864 116.562Z"/>
</mask>
<path d="M54.0864 116.562L94.0065 105.348L94.1819 105.623V105.861L54.0864 116.562Z" fill="#073CAE"/>
<path d="M94.0065 105.348L93.9705 105.22L94.0658 105.193L94.119 105.277L94.0065 105.348ZM94.1819 105.623L94.2943 105.552L94.3152 105.585V105.623H94.1819ZM94.1819 105.861H94.3152V105.964L94.2163 105.99L94.1819 105.861ZM54.0504 116.434L93.9705 105.22L94.0426 105.477L54.1225 116.691L54.0504 116.434ZM94.119 105.277L94.2943 105.552L94.0695 105.695L93.8941 105.42L94.119 105.277ZM94.3152 105.623V105.861H94.0486V105.623H94.3152ZM94.2163 105.99L54.1208 116.691L54.052 116.433L94.1475 105.732L94.2163 105.99Z" fill="#93C5FD" mask="url(#path-37-inside-9_59_567)"/>
<mask id="path-39-inside-10_59_567" fill="white">
<path d="M48.5513 113.63L94.1819 101.453L220.316 28.5803L174.685 40.7577L48.5513 113.63Z"/>
</mask>
<path d="M48.5513 113.63L94.1819 101.453L220.316 28.5803L174.685 40.7577L48.5513 113.63Z" fill="#2563EB"/>
<path d="M94.1819 101.453L94.2486 101.568L94.2333 101.577L94.2163 101.582L94.1819 101.453ZM220.316 28.5803L220.282 28.4515L220.383 28.6957L220.316 28.5803ZM174.685 40.7577L174.619 40.6422L174.634 40.6334L174.651 40.6288L174.685 40.7577ZM48.5169 113.501L94.1475 101.324L94.2163 101.582L48.5856 113.759L48.5169 113.501ZM94.1152 101.337L220.249 28.4648L220.383 28.6957L94.2486 101.568L94.1152 101.337ZM220.35 28.7091L174.72 40.8865L174.651 40.6288L220.282 28.4515L220.35 28.7091ZM174.752 40.8731L48.618 113.746L48.4846 113.515L174.619 40.6422L174.752 40.8731Z" fill="#93C5FD" mask="url(#path-39-inside-10_59_567)"/>
<mask id="path-41-inside-11_59_567" fill="white">
<path d="M132.488 161.361L94.1816 101.452L220.316 28.58L258.621 88.4892L132.488 161.361Z"/>
</mask>
<path d="M132.488 161.361L94.1816 101.452L220.316 28.58L258.621 88.4892L132.488 161.361Z" fill="#1D4ED8"/>
<path d="M94.1816 101.452L94.0693 101.524L93.9942 101.407L94.1149 101.337L94.1816 101.452ZM220.316 28.58L220.249 28.4645L220.359 28.4008L220.428 28.5082L220.316 28.58ZM258.621 88.4892L258.734 88.4174L258.809 88.5349L258.688 88.6047L258.621 88.4892ZM132.376 161.432L94.0693 101.524L94.294 101.381L132.601 161.289L132.376 161.432ZM94.1149 101.337L220.249 28.4645L220.382 28.6954L94.2483 101.568L94.1149 101.337ZM220.428 28.5082L258.734 88.4174L258.509 88.561L220.203 28.6518L220.428 28.5082ZM258.688 88.6047L132.555 161.476L132.422 161.245L258.555 88.3737L258.688 88.6047Z" fill="#93C5FD" mask="url(#path-41-inside-11_59_567)"/>
<mask id="path-43-inside-12_59_567" fill="white">
<path d="M158.158 128.63L136.54 120.904L136.542 106.709L154.522 113.346L162.666 122.546L158.158 128.63Z"/>
</mask>
<path d="M158.158 128.63L136.54 120.904L136.542 106.709L154.522 113.346L162.666 122.546L158.158 128.63Z" fill="#93C5FD"/>
<path d="M136.54 120.904L136.495 121.029L136.406 120.998L136.406 120.904L136.54 120.904ZM136.542 106.709L136.408 106.709L136.408 106.517L136.588 106.584L136.542 106.709ZM154.522 113.346L154.568 113.221L154.599 113.233L154.622 113.258L154.522 113.346ZM162.666 122.546L162.765 122.457L162.837 122.538L162.773 122.625L162.666 122.546ZM158.114 128.756L136.495 121.029L136.584 120.778L158.203 128.505L158.114 128.756ZM136.406 120.904L136.408 106.709L136.675 106.709L136.673 120.904L136.406 120.904ZM136.588 106.584L154.568 113.221L154.476 113.472L136.496 106.834L136.588 106.584ZM154.622 113.258L162.765 122.457L162.566 122.634L154.422 113.435L154.622 113.258ZM162.773 122.625L158.266 128.709L158.051 128.551L162.558 122.466L162.773 122.625Z" fill="#93C5FD" mask="url(#path-43-inside-12_59_567)"/>
<mask id="path-45-inside-13_59_567" fill="white">
<path d="M136.539 105.61L128.723 101.098L136.491 96.6124L144.307 101.126L136.539 105.61Z"/>
</mask>
<path d="M136.539 105.61L128.723 101.098L136.491 96.6124L144.307 101.126L136.539 105.61Z" fill="#B36762"/>
<path d="M128.723 101.098L128.656 101.213L128.456 101.098L128.656 100.982L128.723 101.098ZM136.491 96.6124L136.424 96.4969L136.491 96.4584L136.558 96.4969L136.491 96.6124ZM144.307 101.126L144.374 101.011L144.574 101.126L144.374 101.242L144.307 101.126ZM136.473 105.726L128.656 101.213L128.79 100.982L136.606 105.495L136.473 105.726ZM128.656 100.982L136.424 96.4969L136.558 96.7279L128.79 101.213L128.656 100.982ZM136.558 96.4969L144.374 101.011L144.24 101.242L136.424 96.7279L136.558 96.4969ZM144.374 101.242L136.606 105.726L136.473 105.495L144.24 101.011L144.374 101.242Z" fill="#93C5FD" mask="url(#path-45-inside-13_59_567)"/>
<mask id="path-47-inside-14_59_567" fill="white">
<path d="M136.541 105.568L128.146 100.719L136.489 95.9018L144.886 100.75L136.541 105.568Z"/>
</mask>
<path d="M136.541 105.568L128.146 100.719L136.489 95.9018L144.886 100.75L136.541 105.568Z" fill="#60A5FA"/>
<path d="M128.146 100.719L128.079 100.835L127.879 100.719L128.079 100.604L128.146 100.719ZM136.489 95.9018L136.422 95.7864L136.489 95.7479L136.555 95.7864L136.489 95.9018ZM144.886 100.75L144.952 100.634L145.152 100.75L144.953 100.865L144.886 100.75ZM136.475 105.684L128.079 100.835L128.212 100.604L136.608 105.453L136.475 105.684ZM128.079 100.604L136.422 95.7864L136.555 96.0173L128.212 100.835L128.079 100.604ZM136.555 95.7864L144.952 100.634L144.819 100.865L136.422 96.0173L136.555 95.7864ZM144.953 100.865L136.608 105.684L136.475 105.453L144.819 100.634L144.953 100.865Z" fill="#93C5FD" mask="url(#path-47-inside-14_59_567)"/>
<path d="M136.609 105.606V106.91L144.82 102.169V100.865L136.609 105.606Z" fill="#2563EB" stroke="#93C5FD" stroke-width="0.133333"/>
<path d="M128.212 100.834V102.139L136.475 106.91V105.606L128.212 100.834Z" fill="#1E3A8A" stroke="#93C5FD" stroke-width="0.133333"/>
<mask id="path-51-inside-15_59_567" fill="white">
<path d="M142.024 101.116L136.53 104.296L136.512 104.277L131.017 101.098L136.494 97.9373L136.512 97.9559L142.024 101.116Z"/>
</mask>
<path d="M142.024 101.116L136.53 104.296L136.512 104.277L131.017 101.098L136.494 97.9373L136.512 97.9559L142.024 101.116Z" fill="#1E3A8A"/>
<path d="M136.53 104.296L136.597 104.411L136.505 104.464L136.433 104.387L136.53 104.296ZM136.512 104.277L136.579 104.162L136.596 104.171L136.609 104.186L136.512 104.277ZM131.017 101.098L130.95 101.214L130.75 101.098L130.95 100.983L131.017 101.098ZM136.494 97.9373L136.427 97.8218L136.516 97.7707L136.588 97.843L136.494 97.9373ZM136.512 97.9559L136.446 98.0716L136.431 98.0628L136.418 98.0503L136.512 97.9559ZM142.091 101.231L136.597 104.411L136.463 104.18L141.958 101.001L142.091 101.231ZM136.433 104.387L136.415 104.368L136.609 104.186L136.627 104.204L136.433 104.387ZM136.446 104.392L130.95 101.214L131.083 100.983L136.579 104.162L136.446 104.392ZM130.95 100.983L136.427 97.8218L136.56 98.0528L131.083 101.214L130.95 100.983ZM136.588 97.843L136.607 97.8616L136.418 98.0503L136.399 98.0316L136.588 97.843ZM136.579 97.8403L142.091 101L141.958 101.232L136.446 98.0716L136.579 97.8403Z" fill="#93C5FD" mask="url(#path-51-inside-15_59_567)"/>
<mask id="path-53-inside-16_59_567" fill="white">
<path d="M142.024 101.116L136.529 104.296L136.512 104.277V97.956L142.024 101.116Z"/>
</mask>
<path d="M142.024 101.116L136.529 104.296L136.512 104.277V97.956L142.024 101.116Z" fill="#2563EB"/>
<path d="M136.529 104.296L136.596 104.411L136.505 104.464L136.432 104.387L136.529 104.296ZM136.512 104.277L136.415 104.368L136.378 104.33V104.277H136.512ZM136.512 97.956H136.378V97.7258L136.578 97.8403L136.512 97.956ZM142.091 101.231L136.596 104.411L136.462 104.18L141.957 101.001L142.091 101.231ZM136.432 104.387L136.415 104.368L136.609 104.186L136.626 104.204L136.432 104.387ZM136.378 104.277V97.956H136.645V104.277H136.378ZM136.578 97.8403L142.09 101L141.958 101.232L136.445 98.0716L136.578 97.8403Z" fill="#93C5FD" mask="url(#path-53-inside-16_59_567)"/>
<path d="M136.606 105.648V120.788L144.241 116.381V101.241L136.606 105.648Z" fill="#1E3A8A" stroke="#93C5FD" stroke-width="0.133333"/>
<path d="M128.791 101.212V108.741L136.473 120.676V105.648L128.791 101.212Z" fill="#1D4ED8" stroke="#93C5FD" stroke-width="0.133333"/>
<path d="M137.506 96.9092L136.536 96.3493L135.573 96.9049L136.544 97.4657L137.506 96.9092Z" fill="#B36762" stroke="#93C5FD" stroke-width="0.133333"/>
<path d="M136.611 97.5811V105.081L137.573 104.526V97.0247L136.611 97.5811Z" fill="#1E3A8A" stroke="#93C5FD" stroke-width="0.133333"/>
<path d="M135.507 97.0203V104.521L136.477 105.081V97.5811L135.507 97.0203Z" fill="#2563EB" stroke="#93C5FD" stroke-width="0.133333"/>
<path d="M137.148 97.1171L136.532 96.7699L135.934 97.1132L136.544 97.4657L137.148 97.1171Z" fill="#096EA8" stroke="#93C5FD" stroke-width="0.133333"/>
<mask id="path-61-inside-17_59_567" fill="white">
<path d="M136.552 99.8914L136.544 99.887V97.5435L137.282 97.1172L137.637 97.3166V99.2677L136.552 99.8914Z"/>
</mask>
<path d="M136.552 99.8914L136.544 99.887V97.5435L137.282 97.1172L137.637 97.3166V99.2677L136.552 99.8914Z" fill="#093B7D"/>
<path d="M136.544 99.887L136.478 100.003L136.411 99.9643V99.887H136.544ZM136.544 97.5435H136.411V97.4666L136.477 97.4281L136.544 97.5435ZM137.282 97.1172L137.215 97.0017L137.281 96.9637L137.347 97.0009L137.282 97.1172ZM137.637 97.3166L137.702 97.2004L137.77 97.2386V97.3166H137.637ZM137.637 99.2677H137.77V99.3448L137.703 99.3833L137.637 99.2677ZM136.485 100.007L136.478 100.003L136.61 99.7712L136.618 99.7756L136.485 100.007ZM136.411 99.887V97.5435H136.677V99.887H136.411ZM136.477 97.4281L137.215 97.0017L137.348 97.2326L136.611 97.659L136.477 97.4281ZM137.347 97.0009L137.702 97.2004L137.571 97.4329L137.216 97.2334L137.347 97.0009ZM137.77 97.3166V99.2677H137.503V97.3166H137.77ZM137.703 99.3833L136.618 100.007L136.485 99.7758L137.57 99.1521L137.703 99.3833Z" fill="#93C5FD" mask="url(#path-61-inside-17_59_567)"/>
<path d="M135.511 97.3549V99.208L136.477 99.7705V97.5816L135.799 97.1903L135.511 97.3549Z" fill="#096EA8" stroke="#93C5FD" stroke-width="0.133333"/>
<path d="M144.179 93.0533L143.207 92.4934L142.245 93.0499L143.215 93.6098L144.179 93.0533Z" fill="#B36762" stroke="#93C5FD" stroke-width="0.133333"/>
<path d="M143.281 93.7252V101.225L144.245 100.67V93.1686L143.281 93.7252Z" fill="#1E3A8A" stroke="#93C5FD" stroke-width="0.133333"/>
<path d="M142.178 93.1653V100.665L143.148 101.225V93.7252L142.178 93.1653Z" fill="#2563EB" stroke="#93C5FD" stroke-width="0.133333"/>
<mask id="path-67-inside-18_59_567" fill="white">
<path d="M143.215 93.6868L142.465 93.2549L142.945 92.9732L143.691 93.4117L143.215 93.6868Z"/>
</mask>
<path d="M143.215 93.6868L142.465 93.2549L142.945 92.9732L143.691 93.4117L143.215 93.6868Z" fill="#096EA8"/>
<path d="M142.465 93.2549L142.399 93.3705L142.2 93.256L142.398 93.1399L142.465 93.2549ZM142.945 92.9732L142.878 92.8583L142.945 92.8186L143.013 92.8583L142.945 92.9732ZM143.691 93.4117L143.758 93.2967L143.955 93.4126L143.757 93.5271L143.691 93.4117ZM143.148 93.8023L142.399 93.3705L142.532 93.1394L143.282 93.5712L143.148 93.8023ZM142.398 93.1399L142.878 92.8583L143.013 93.0882L142.533 93.3699L142.398 93.1399ZM143.013 92.8583L143.758 93.2967L143.623 93.5266L142.878 93.0882L143.013 92.8583ZM143.757 93.5271L143.282 93.8022L143.148 93.5713L143.624 93.2962L143.757 93.5271Z" fill="#93C5FD" mask="url(#path-67-inside-18_59_567)"/>
<path d="M143.69 93.4895L143.281 93.7259V95.9253L144.245 95.3687V93.8155L143.69 93.4895Z" fill="#093B7D" stroke="#93C5FD" stroke-width="0.133333"/>
<path d="M142.188 93.4947V95.4932L143.148 95.9396V93.7252L142.466 93.3319L142.188 93.4947Z" fill="#096EA8" stroke="#93C5FD" stroke-width="0.133333"/>
<path d="M130.791 93.0348L129.82 92.4739L128.857 93.0304L129.828 93.5903L130.791 93.0348Z" fill="#B36762" stroke="#93C5FD" stroke-width="0.133333"/>
<path d="M129.895 93.706V101.207L130.858 100.651V93.1505L129.895 93.706Z" fill="#1E3A8A" stroke="#93C5FD" stroke-width="0.133333"/>
<path d="M128.79 93.1461V100.646L129.761 101.207V93.706L128.79 93.1461Z" fill="#2563EB" stroke="#93C5FD" stroke-width="0.133333"/>
<path d="M130.432 93.2421L130.077 93.03L129.47 93.3841L129.828 93.5903L130.432 93.2421Z" fill="#096EA8" stroke="#93C5FD" stroke-width="0.133333"/>
<mask id="path-75-inside-19_59_567" fill="white">
<path d="M129.828 96.0183V93.6672L130.564 93.243L130.921 93.4568V95.4078L129.828 96.0183Z"/>
</mask>
<path d="M129.828 96.0183V93.6672L130.564 93.243L130.921 93.4568V95.4078L129.828 96.0183Z" fill="#093B7D"/>
<path d="M129.828 93.6672H129.695V93.5902L129.762 93.5517L129.828 93.6672ZM130.564 93.243L130.497 93.1275L130.565 93.0884L130.632 93.1286L130.564 93.243ZM130.921 93.4568L130.989 93.3424L131.054 93.3812V93.4568H130.921ZM130.921 95.4078H131.054V95.486L130.986 95.5242L130.921 95.4078ZM129.695 96.0183V93.6672H129.961V96.0183H129.695ZM129.762 93.5517L130.497 93.1275L130.63 93.3585L129.895 93.7827L129.762 93.5517ZM130.632 93.1286L130.989 93.3424L130.852 93.5712L130.495 93.3575L130.632 93.1286ZM131.054 93.4568V95.4078H130.788V93.4568H131.054ZM130.986 95.5242L129.893 96.1347L129.763 95.9019L130.856 95.2914L130.986 95.5242Z" fill="#93C5FD" mask="url(#path-75-inside-19_59_567)"/>
<path d="M128.797 93.7756V95.3473L129.762 95.9056V93.7057L129.337 93.4613L128.797 93.7756Z" fill="#096EA8" stroke="#93C5FD" stroke-width="0.133333"/>
<mask id="path-78-inside-20_59_567" fill="white">
<path d="M136.545 97.5315L127.31 92.1991L136.487 86.9007L145.723 92.232L136.545 97.5315Z"/>
</mask>
<path d="M136.545 97.5315L127.31 92.1991L136.487 86.9007L145.723 92.232L136.545 97.5315Z" fill="white"/>
<path d="M127.31 92.1991L127.243 92.3146L127.043 92.1991L127.243 92.0836L127.31 92.1991ZM136.487 86.9007L136.42 86.7852L136.487 86.7467L136.554 86.7852L136.487 86.9007ZM145.723 92.232L145.789 92.1165L145.989 92.2319L145.789 92.3474L145.723 92.232ZM136.478 97.647L127.243 92.3146L127.376 92.0836L136.612 97.416L136.478 97.647ZM127.243 92.0836L136.42 86.7852L136.554 87.0161L127.376 92.3146L127.243 92.0836ZM136.554 86.7852L145.789 92.1165L145.656 92.3474L136.42 87.0161L136.554 86.7852ZM145.789 92.3474L136.612 97.647L136.478 97.416L145.656 92.1165L145.789 92.3474Z" fill="#93C5FD" mask="url(#path-78-inside-20_59_567)"/>
<path d="M136.612 97.5709V99.0205L145.656 93.798V92.3484L136.612 97.5709Z" fill="#3B82F6" stroke="#93C5FD" stroke-width="0.133333"/>
<path d="M127.376 92.3155V93.7651L136.478 99.0205V97.5709L127.376 92.3155Z" fill="#3B82F6" stroke="#93C5FD" stroke-width="0.133333"/>
<path d="M309.909 176.794L200.85 114.236L166.8 145.927L275.859 208.485L309.909 176.794Z" fill="#5598E9" stroke="#93C5FD" stroke-width="0.133333"/>
<mask id="path-83-inside-21_59_567" fill="white">
<path d="M261.775 91.8977L221.696 77.3868L330.877 140.014L370.955 154.525L261.775 91.8977Z"/>
</mask>
<path d="M261.775 91.8977L221.696 77.3868L330.877 140.014L370.955 154.525L261.775 91.8977Z" fill="#DDB79B"/>
<path d="M221.696 77.3868L221.63 77.5024L221.742 77.2614L221.696 77.3868ZM330.877 140.014L330.832 140.14L330.821 140.136L330.811 140.13L330.877 140.014ZM370.955 154.525L371.022 154.409L370.91 154.651L370.955 154.525ZM261.73 92.0231L221.651 77.5122L221.742 77.2614L261.821 91.7723L261.73 92.0231ZM221.763 77.2711L330.944 139.899L330.811 140.13L221.63 77.5024L221.763 77.2711ZM330.923 139.889L371.001 154.4L370.91 154.651L330.832 140.14L330.923 139.889ZM370.889 154.641L261.709 92.0134L261.842 91.7821L371.022 154.409L370.889 154.641Z" fill="#93C5FD" mask="url(#path-83-inside-21_59_567)"/>
<mask id="path-85-inside-22_59_567" fill="white">
<path d="M330.878 140.014L310.021 176.781L200.841 114.154L221.697 77.3868L330.878 140.014Z"/>
</mask>
<path d="M330.878 140.014L310.021 176.781L200.841 114.154L221.697 77.3868L330.878 140.014Z" fill="#433E44"/>
<path d="M310.021 176.781L310.137 176.847L310.071 176.963L309.954 176.897L310.021 176.781ZM200.841 114.154L200.774 114.269L200.659 114.203L200.725 114.088L200.841 114.154ZM221.697 77.3868L221.581 77.3211L221.647 77.2045L221.763 77.2712L221.697 77.3868ZM330.994 140.08L310.137 176.847L309.905 176.715L330.762 139.949L330.994 140.08ZM309.954 176.897L200.774 114.269L200.907 114.038L310.087 176.665L309.954 176.897ZM200.725 114.088L221.581 77.3211L221.813 77.4526L200.957 114.219L200.725 114.088ZM221.763 77.2712L330.944 139.899L330.812 140.13L221.631 77.5025L221.763 77.2712Z" fill="#93C5FD" mask="url(#path-85-inside-22_59_567)"/>
<mask id="path-87-inside-23_59_567" fill="white">
<path d="M280.907 213.543L280.904 203.882V213.452L280.907 213.448V213.543Z"/>
</mask>
<path d="M280.907 213.543L280.904 203.882V213.452L280.907 213.448V213.543Z" fill="#02288E"/>
<path d="M280.907 213.543H281.04L280.774 213.543L280.907 213.543ZM280.904 203.882H280.77L281.037 203.882L280.904 203.882ZM280.904 213.452L280.999 213.545L280.77 213.777V213.452H280.904ZM280.907 213.448L280.812 213.355L281.04 213.123V213.448H280.907ZM280.774 213.543L280.77 203.882L281.037 203.882L281.04 213.543L280.774 213.543ZM281.037 203.882V213.452H280.77V203.882H281.037ZM280.809 213.358L280.812 213.355L281.002 213.542L280.999 213.545L280.809 213.358ZM281.04 213.448V213.543H280.774V213.448H281.04Z" fill="#93C5FD" mask="url(#path-87-inside-23_59_567)"/>
<mask id="path-89-inside-24_59_567" fill="white">
<path d="M280.907 213.543L171.733 150.933V148.835L275.868 208.568L280.903 203.882V213.541"/>
</mask>
<path d="M280.907 213.543L171.733 150.933V148.835L275.868 208.568L280.903 203.882V213.541" fill="#1E3A8A"/>
<path d="M171.733 150.933L171.667 151.048L171.6 151.01V150.933H171.733ZM171.733 148.835H171.6V148.605L171.8 148.719L171.733 148.835ZM275.868 208.568L275.959 208.665L275.887 208.732L275.802 208.683L275.868 208.568ZM280.903 203.882L280.813 203.784L281.037 203.576V203.882H280.903ZM280.84 213.658L171.667 151.048L171.8 150.817L280.973 213.427L280.84 213.658ZM171.6 150.933V148.835H171.867V150.933H171.6ZM171.8 148.719L275.934 208.452L275.802 208.683L171.667 148.951L171.8 148.719ZM275.777 208.47L280.813 203.784L280.994 203.98L275.959 208.665L275.777 208.47ZM281.037 203.882V213.541H280.77V203.882H281.037Z" fill="#93C5FD" mask="url(#path-89-inside-24_59_567)"/>
<path d="M171.909 138.663L171.8 138.725V141.091L173.457 139.55L171.909 138.663Z" fill="#02288E" stroke="#93C5FD" stroke-width="0.133333"/>
<mask id="path-92-inside-25_59_567" fill="white">
<path d="M171.733 138.687V138.485L171.909 138.586L171.733 138.687Z"/>
</mask>
<path d="M171.733 138.687V138.485L171.909 138.586L171.733 138.687Z" fill="#0852BE"/>
<path d="M171.733 138.687L171.8 138.802L171.6 138.917V138.687H171.733ZM171.733 138.485H171.6V138.255L171.8 138.37L171.733 138.485ZM171.909 138.586L171.975 138.47L172.176 138.586L171.975 138.702L171.909 138.586ZM171.6 138.687V138.485H171.867V138.687H171.6ZM171.8 138.37L171.975 138.47L171.842 138.702L171.667 138.601L171.8 138.37ZM171.975 138.702L171.8 138.802L171.667 138.571L171.842 138.47L171.975 138.702Z" fill="#93C5FD" mask="url(#path-92-inside-25_59_567)"/>
<mask id="path-94-inside-26_59_567" fill="white">
<path d="M275.868 208.567L171.733 148.834V141.244L173.568 139.537L280.907 201.095L280.903 203.881L275.868 208.567Z"/>
</mask>
<path d="M275.868 208.567L171.733 148.834V141.244L173.568 139.537L280.907 201.095L280.903 203.881L275.868 208.567Z" fill="#073CAE"/>
<path d="M171.733 148.834L171.667 148.95L171.6 148.912V148.834H171.733ZM171.733 141.244H171.6V141.186L171.643 141.146L171.733 141.244ZM173.568 139.537L173.477 139.44L173.549 139.373L173.635 139.422L173.568 139.537ZM280.907 201.095L280.973 200.98L281.04 201.018L281.04 201.095L280.907 201.095ZM280.903 203.881L281.037 203.882L281.037 203.94L280.994 203.979L280.903 203.881ZM275.802 208.683L171.667 148.95L171.8 148.719L275.934 208.451L275.802 208.683ZM171.6 148.834V141.244H171.867V148.834H171.6ZM171.643 141.146L173.477 139.44L173.659 139.635L171.824 141.342L171.643 141.146ZM173.635 139.422L280.973 200.98L280.84 201.211L173.502 139.653L173.635 139.422ZM281.04 201.095L281.037 203.882L280.77 203.881L280.773 201.095L281.04 201.095ZM280.994 203.979L275.959 208.665L275.777 208.47L280.813 203.784L280.994 203.979Z" fill="#93C5FD" mask="url(#path-94-inside-26_59_567)"/>
<mask id="path-96-inside-27_59_567" fill="white">
<path d="M288.313 196.986L310.021 176.781L330.878 140.014L329.02 138.948L330.878 140.014L365.386 152.509L355.124 158.431L330.878 149.663L311.684 183.498L288.313 196.986Z"/>
</mask>
<path d="M288.313 196.986L310.021 176.781L330.878 140.014L329.02 138.948L330.878 140.014L365.386 152.509L355.124 158.431L330.878 149.663L311.684 183.498L288.313 196.986Z" fill="#1E3A8A"/>
<path d="M310.021 176.781L310.137 176.847L310.127 176.865L310.112 176.879L310.021 176.781ZM330.878 140.014L330.945 139.899L331.06 139.965L330.994 140.08L330.878 140.014ZM330.878 140.014L330.833 140.14L330.822 140.136L330.812 140.13L330.878 140.014ZM365.386 152.509L365.432 152.383L365.701 152.481L365.453 152.624L365.386 152.509ZM355.124 158.431L355.19 158.546L355.137 158.577L355.078 158.556L355.124 158.431ZM330.878 149.663L330.762 149.597L330.818 149.499L330.924 149.538L330.878 149.663ZM311.684 183.498L311.8 183.564L311.782 183.595L311.751 183.613L311.684 183.498ZM288.223 196.888L309.93 176.683L310.112 176.879L288.404 197.084L288.223 196.888ZM309.905 176.715L330.762 139.949L330.994 140.08L310.137 176.847L309.905 176.715ZM330.812 140.13L328.953 139.064L329.086 138.832L330.945 139.899L330.812 140.13ZM329.086 138.832L330.945 139.899L330.812 140.13L328.953 139.064L329.086 138.832ZM330.924 139.889L365.432 152.383L365.341 152.634L330.833 140.14L330.924 139.889ZM365.453 152.624L355.19 158.546L355.057 158.315L365.32 152.393L365.453 152.624ZM355.078 158.556L330.833 149.789L330.924 149.538L355.169 158.305L355.078 158.556ZM330.994 149.729L311.8 183.564L311.568 183.432L330.762 149.597L330.994 149.729ZM311.751 183.613L288.38 197.102L288.247 196.871L311.617 183.382L311.751 183.613Z" fill="#93C5FD" mask="url(#path-96-inside-27_59_567)"/>
<mask id="path-98-inside-28_59_567" fill="white">
<path d="M280.907 213.448V203.879L288.313 196.987L311.683 183.498L310.021 186.43L280.907 213.448ZM365.741 162.271L355.123 158.431L365.386 152.509L365.741 152.637V162.271Z"/>
</mask>
<path d="M280.907 213.448V203.879L288.313 196.987L311.683 183.498L310.021 186.43L280.907 213.448ZM365.741 162.271L355.123 158.431L365.386 152.509L365.741 152.637V162.271Z" fill="#1E3A8A"/>
<path d="M280.907 213.448L280.997 213.546L280.773 213.754V213.448H280.907ZM280.907 203.879H280.773V203.821L280.816 203.781L280.907 203.879ZM288.313 196.987L288.222 196.889L288.233 196.879L288.246 196.871L288.313 196.987ZM311.683 183.498L311.617 183.383L312.041 183.138L311.799 183.564L311.683 183.498ZM310.021 186.43L310.137 186.496L310.126 186.514L310.111 186.528L310.021 186.43ZM355.123 158.431L355.078 158.556L354.808 158.459L355.056 158.316L355.123 158.431ZM365.386 152.509L365.319 152.394L365.373 152.363L365.431 152.384L365.386 152.509ZM365.741 152.637L365.786 152.512L365.874 152.544V152.637H365.741ZM280.773 213.448V203.879H281.04V213.448H280.773ZM280.816 203.781L288.222 196.889L288.404 197.084L280.998 203.976L280.816 203.781ZM288.246 196.871L311.617 183.383L311.75 183.614L288.38 197.102L288.246 196.871ZM311.799 183.564L310.137 186.496L309.905 186.365L311.567 183.433L311.799 183.564ZM310.111 186.528L280.997 213.546L280.816 213.351L309.93 186.333L310.111 186.528ZM365.695 162.396L355.078 158.556L355.168 158.306L365.786 162.145L365.695 162.396ZM355.056 158.316L365.319 152.394L365.452 152.624L355.19 158.547L355.056 158.316ZM365.431 152.384L365.786 152.512L365.695 152.763L365.34 152.634L365.431 152.384ZM365.874 152.637V162.271H365.607V152.637H365.874Z" fill="#93C5FD" mask="url(#path-98-inside-28_59_567)"/>
<mask id="path-100-inside-29_59_567" fill="white">
<path d="M280.907 203.878V201.095L280.904 194.998L304.158 173.417L310.021 176.781L288.313 196.986L280.907 203.878Z"/>
</mask>
<path d="M280.907 203.878V201.095L280.904 194.998L304.158 173.417L310.021 176.781L288.313 196.986L280.907 203.878Z" fill="#033093"/>
<path d="M280.907 201.095L281.04 201.095V201.095H280.907ZM280.904 194.998L280.77 194.998L280.77 194.94L280.813 194.9L280.904 194.998ZM304.158 173.417L304.067 173.319L304.139 173.253L304.224 173.302L304.158 173.417ZM310.021 176.781L310.087 176.665L310.244 176.755L310.112 176.879L310.021 176.781ZM288.313 196.986L288.404 197.084L288.404 197.084L288.313 196.986ZM280.774 203.878V201.095H281.04V203.878H280.774ZM280.774 201.095L280.77 194.998L281.037 194.998L281.04 201.095L280.774 201.095ZM280.813 194.9L304.067 173.319L304.249 173.515L280.995 195.096L280.813 194.9ZM304.224 173.302L310.087 176.665L309.955 176.897L304.092 173.533L304.224 173.302ZM310.112 176.879L288.404 197.084L288.222 196.888L309.93 176.683L310.112 176.879ZM288.404 197.084L280.998 203.976L280.816 203.781L288.222 196.888L288.404 197.084Z" fill="#93C5FD" mask="url(#path-100-inside-29_59_567)"/>
<mask id="path-102-inside-30_59_567" fill="white">
<path d="M365.74 151.533L330.737 131.454L330.878 131.209L365.74 148.284V151.533Z"/>
</mask>
<path d="M365.74 151.533L330.737 131.454L330.878 131.209L365.74 148.284V151.533Z" fill="url(#paint2_linear_59_567)"/>
<path d="M330.737 131.454L330.671 131.57L330.555 131.504L330.622 131.388L330.737 131.454ZM330.878 131.209L330.762 131.143L330.824 131.034L330.936 131.089L330.878 131.209ZM365.74 148.284L365.799 148.164L365.874 148.2V148.284H365.74ZM365.674 151.649L330.671 131.57L330.804 131.339L365.807 151.418L365.674 151.649ZM330.622 131.388L330.762 131.143L330.993 131.275L330.853 131.521L330.622 131.388ZM330.936 131.089L365.799 148.164L365.682 148.403L330.819 131.329L330.936 131.089ZM365.874 148.284V151.533H365.607V148.284H365.874Z" fill="#93C5FD" mask="url(#path-102-inside-30_59_567)"/>
<mask id="path-104-inside-31_59_567" fill="white">
<path d="M365.741 152.638L365.385 152.51L330.878 140.016L329.019 138.949L330.878 135.673L328.967 134.577L330.737 131.456L365.741 151.535V152.638Z"/>
</mask>
<path d="M365.741 152.638L365.385 152.51L330.878 140.016L329.019 138.949L330.878 135.673L328.967 134.577L330.737 131.456L365.741 151.535V152.638Z" fill="#073962"/>
<path d="M365.385 152.51L365.34 152.635L365.34 152.635L365.385 152.51ZM330.878 140.016L330.832 140.141L330.821 140.137L330.811 140.131L330.878 140.016ZM329.019 138.949L328.952 139.065L328.837 138.999L328.903 138.883L329.019 138.949ZM330.878 135.673L330.944 135.557L331.059 135.623L330.994 135.739L330.878 135.673ZM328.967 134.577L328.901 134.692L328.786 134.626L328.851 134.511L328.967 134.577ZM330.737 131.456L330.621 131.391L330.688 131.274L330.804 131.341L330.737 131.456ZM365.741 151.535L365.807 151.42L365.874 151.458V151.535H365.741ZM365.695 152.763L365.34 152.635L365.431 152.384L365.786 152.513L365.695 152.763ZM365.34 152.635L330.832 140.141L330.923 139.89L365.431 152.384L365.34 152.635ZM330.811 140.131L328.952 139.065L329.085 138.833L330.944 139.9L330.811 140.131ZM328.903 138.883L330.762 135.607L330.994 135.739L329.135 139.015L328.903 138.883ZM330.811 135.789L328.901 134.692L329.034 134.461L330.944 135.557L330.811 135.789ZM328.851 134.511L330.621 131.391L330.853 131.522L329.083 134.643L328.851 134.511ZM330.804 131.341L365.807 151.42L365.674 151.651L330.671 131.572L330.804 131.341ZM365.874 151.535V152.638H365.607V151.535H365.874Z" fill="#93C5FD" mask="url(#path-104-inside-31_59_567)"/>
<mask id="path-106-inside-32_59_567" fill="white">
<path d="M310.021 176.781L304.158 173.417L307.05 170.733L310.021 172.437L329.019 138.948L330.878 140.014L310.021 176.781Z"/>
</mask>
<path d="M310.021 176.781L304.158 173.417L307.05 170.733L310.021 172.437L329.019 138.948L330.878 140.014L310.021 176.781Z" fill="#02132B"/>
<path d="M304.158 173.417L304.092 173.533L303.935 173.443L304.067 173.319L304.158 173.417ZM307.05 170.733L306.959 170.635L307.031 170.568L307.116 170.617L307.05 170.733ZM310.021 172.437L310.137 172.503L310.071 172.62L309.955 172.553L310.021 172.437ZM329.019 138.948L328.903 138.882L328.97 138.765L329.086 138.832L329.019 138.948ZM330.878 140.014L330.945 139.899L331.06 139.965L330.994 140.08L330.878 140.014ZM309.955 176.897L304.092 173.533L304.225 173.302L310.087 176.665L309.955 176.897ZM304.067 173.319L306.959 170.635L307.14 170.831L304.249 173.515L304.067 173.319ZM307.116 170.617L310.087 172.322L309.955 172.553L306.983 170.849L307.116 170.617ZM309.905 172.371L328.903 138.882L329.135 139.014L310.137 172.503L309.905 172.371ZM329.086 138.832L330.945 139.899L330.812 140.13L328.953 139.063L329.086 138.832ZM330.994 140.08L310.137 176.847L309.905 176.715L330.762 139.949L330.994 140.08Z" fill="#93C5FD" mask="url(#path-106-inside-32_59_567)"/>
<mask id="path-108-inside-33_59_567" fill="white">
<path d="M280.904 213.452V203.883L280.907 203.879V213.449L280.904 213.452Z"/>
</mask>
<path d="M280.904 213.452V203.883L280.907 203.879V213.449L280.904 213.452Z" fill="#000D5A"/>
<path d="M280.904 213.452L280.999 213.546L280.77 213.778V213.452H280.904ZM280.904 203.883H280.77V203.828L280.809 203.789L280.904 203.883ZM280.907 203.879L280.812 203.786L281.04 203.554V203.879H280.907ZM280.907 213.449H281.04V213.504L281.002 213.543L280.907 213.449ZM280.77 213.452V203.883H281.037V213.452H280.77ZM280.809 203.789L280.812 203.786L281.002 203.973L280.999 203.976L280.809 203.789ZM281.04 203.879V213.449H280.774V203.879H281.04ZM281.002 213.543L280.999 213.546L280.809 213.359L280.812 213.356L281.002 213.543Z" fill="#93C5FD" mask="url(#path-108-inside-33_59_567)"/>
<mask id="path-110-inside-34_59_567" fill="white">
<path d="M280.904 203.883V201.095L280.907 201.097V203.88L280.904 203.883Z"/>
</mask>
<path d="M280.904 203.883V201.095L280.907 201.097V203.88L280.904 203.883Z" fill="#00136E"/>
<path d="M280.904 203.883L280.999 203.977L280.77 204.209V203.883H280.904ZM280.904 201.095H280.77V200.845L280.978 200.984L280.904 201.095ZM280.907 201.097L280.981 200.986L281.04 201.026V201.097H280.907ZM280.907 203.88H281.04V203.934L281.002 203.973L280.907 203.88ZM280.77 203.883V201.095H281.037V203.883H280.77ZM280.978 200.984L280.981 200.986L280.833 201.208L280.83 201.205L280.978 200.984ZM281.04 201.097V203.88H280.774V201.097H281.04ZM281.002 203.973L280.999 203.977L280.809 203.79L280.812 203.786L281.002 203.973Z" fill="#93C5FD" mask="url(#path-110-inside-34_59_567)"/>
<mask id="path-112-inside-35_59_567" fill="white">
<path d="M275.868 204.225L166.688 141.597L200.841 109.812L310.021 172.439L275.868 204.225Z"/>
</mask>
<path d="M275.868 204.225L166.688 141.597L200.841 109.812L310.021 172.439L275.868 204.225Z" fill="#2563EB"/>
<path d="M166.688 141.597L166.622 141.712L166.465 141.622L166.598 141.499L166.688 141.597ZM200.841 109.812L200.75 109.714L200.822 109.647L200.907 109.696L200.841 109.812ZM310.021 172.439L310.087 172.324L310.244 172.414L310.112 172.537L310.021 172.439ZM275.802 204.341L166.622 141.712L166.755 141.481L275.935 204.11L275.802 204.341ZM166.598 141.499L200.75 109.714L200.932 109.909L166.779 141.694L166.598 141.499ZM200.907 109.696L310.087 172.324L309.955 172.555L200.775 109.927L200.907 109.696ZM310.112 172.537L275.959 204.323L275.778 204.128L309.93 172.342L310.112 172.537Z" fill="#93C5FD" mask="url(#path-112-inside-35_59_567)"/>
<mask id="path-114-inside-36_59_567" fill="white">
<path d="M261.775 87.5534L221.696 73.0436L330.877 135.671L370.955 150.181L261.775 87.5534Z"/>
</mask>
<path d="M261.775 87.5534L221.696 73.0436L330.877 135.671L370.955 150.181L261.775 87.5534Z" fill="#1D4ED8"/>
<path d="M221.696 73.0436L221.63 73.1593L221.742 72.9182L221.696 73.0436ZM330.877 135.671L330.832 135.796L330.821 135.792L330.811 135.787L330.877 135.671ZM370.955 150.181L371.022 150.065L370.91 150.306L370.955 150.181ZM261.73 87.6788L221.651 73.169L221.742 72.9182L261.821 87.4281L261.73 87.6788ZM221.763 72.928L330.944 135.555L330.811 135.787L221.63 73.1593L221.763 72.928ZM330.923 135.546L371.001 150.056L370.91 150.306L330.832 135.796L330.923 135.546ZM370.889 150.297L261.709 87.6691L261.842 87.4378L371.022 150.065L370.889 150.297Z" fill="#93C5FD" mask="url(#path-114-inside-36_59_567)"/>
<mask id="path-116-inside-37_59_567" fill="white">
<path d="M330.878 135.672L310.021 172.438L200.841 109.811L221.697 73.0447L330.878 135.672Z"/>
</mask>
<path d="M330.878 135.672L310.021 172.438L200.841 109.811L221.697 73.0447L330.878 135.672Z" fill="#3B82F6"/>
<path d="M310.021 172.438L310.137 172.504L310.071 172.62L309.954 172.553L310.021 172.438ZM200.841 109.811L200.774 109.927L200.659 109.861L200.725 109.746L200.841 109.811ZM221.697 73.0447L221.581 72.9789L221.647 72.8624L221.763 72.929L221.697 73.0447ZM330.994 135.738L310.137 172.504L309.905 172.372L330.762 135.606L330.994 135.738ZM309.954 172.553L200.774 109.927L200.907 109.696L310.087 172.322L309.954 172.553ZM200.725 109.746L221.581 72.9789L221.813 73.1105L200.957 109.877L200.725 109.746ZM221.763 72.929L330.944 135.556L330.812 135.788L221.631 73.1603L221.763 72.929Z" fill="#93C5FD" mask="url(#path-116-inside-37_59_567)"/>
<path d="M48.6179 117.953L94.1152 105.81V101.539L48.6179 113.681V117.953Z" fill="#3B82F6" stroke="#93C5FD" stroke-width="0.133333"/>
<mask id="path-119-inside-38_59_567" fill="white">
<path d="M94.1816 101.452V105.86L132.488 165.769V161.36L94.1816 101.452Z"/>
</mask>
<path d="M94.1816 101.452V105.86L132.488 165.769V161.36L94.1816 101.452Z" fill="#60A5FA"/>
<path d="M94.1816 105.86L94.0693 105.932L94.0483 105.899V105.86H94.1816ZM132.488 165.769H132.622V166.225L132.376 165.841L132.488 165.769ZM132.488 161.36L132.601 161.288L132.622 161.321V161.36H132.488ZM94.315 101.452V105.86H94.0483V101.452H94.315ZM94.294 105.788L132.601 165.697L132.376 165.841L94.0693 105.932L94.294 105.788ZM132.355 165.769V161.36H132.622V165.769H132.355ZM132.376 161.432L94.0693 101.523L94.294 101.38L132.601 161.288L132.376 161.432Z" fill="#93C5FD" mask="url(#path-119-inside-38_59_567)"/>
<mask id="path-121-inside-39_59_567" fill="white">
<path d="M370.956 154.525V150.181L330.878 135.672L310.021 172.438L275.868 204.224V208.567L310.021 176.781L330.878 140.014L370.956 154.525Z"/>
</mask>
<path d="M370.956 154.525V150.181L330.878 135.672L310.021 172.438L275.868 204.224V208.567L310.021 176.781L330.878 140.014L370.956 154.525Z" fill="#60A5FA"/>
<path d="M370.956 150.181L371.001 150.056L371.089 150.088V150.181H370.956ZM330.878 135.672L330.762 135.606L330.818 135.508L330.923 135.546L330.878 135.672ZM310.021 172.438L310.137 172.504L310.127 172.522L310.112 172.536L310.021 172.438ZM275.868 204.224H275.735V204.166L275.777 204.127L275.868 204.224ZM275.868 208.567L275.959 208.665L275.735 208.873V208.567H275.868ZM310.021 176.781L310.137 176.847L310.127 176.865L310.112 176.879L310.021 176.781ZM330.878 140.014L330.762 139.948L330.818 139.851L330.923 139.889L330.878 140.014ZM370.823 154.525V150.181H371.089V154.525H370.823ZM370.911 150.307L330.833 135.797L330.923 135.546L371.001 150.056L370.911 150.307ZM330.994 135.737L310.137 172.504L309.905 172.373L330.762 135.606L330.994 135.737ZM310.112 172.536L275.959 204.322L275.777 204.127L309.93 172.341L310.112 172.536ZM276.001 204.224V208.567H275.735V204.224H276.001ZM275.777 208.47L309.93 176.683L310.112 176.879L275.959 208.665L275.777 208.47ZM309.905 176.715L330.762 139.948L330.994 140.08L310.137 176.847L309.905 176.715ZM330.923 139.889L371.001 154.4L370.911 154.651L330.833 140.14L330.923 139.889Z" fill="#93C5FD" mask="url(#path-121-inside-39_59_567)"/>
<mask id="path-123-inside-40_59_567" fill="white">
<path d="M275.868 208.567V204.224L166.688 141.596V145.94L275.868 208.567Z"/>
</mask>
<path d="M275.868 208.567V204.224L166.688 141.596V145.94L275.868 208.567Z" fill="#60A5FA"/>
<path d="M275.868 204.224L275.935 204.109L276.002 204.147V204.224H275.868ZM166.688 141.596H166.555V141.366L166.755 141.48L166.688 141.596ZM166.688 145.94L166.622 146.055L166.555 146.017V145.94H166.688ZM275.735 208.567V204.224H276.002V208.567H275.735ZM275.802 204.34L166.622 141.711L166.755 141.48L275.935 204.109L275.802 204.34ZM166.822 141.596V145.94H166.555V141.596H166.822ZM166.755 145.824L275.935 208.451L275.802 208.683L166.622 146.055L166.755 145.824Z" fill="#93C5FD" mask="url(#path-123-inside-40_59_567)"/>
<mask id="path-125-inside-41_59_567" fill="white">
<path d="M231.376 122.124V99.6586L225.213 96.0975L223.93 84.0396H231.376L254.28 96.7924L253.891 100.094L248.013 109.655L231.376 122.124Z"/>
</mask>
<path d="M231.376 122.124V99.6586L225.213 96.0975L223.93 84.0396H231.376L254.28 96.7924L253.891 100.094L248.013 109.655L231.376 122.124Z" fill="#1E3A8A"/>
<path d="M231.376 99.6586L231.443 99.5432L231.509 99.5817V99.6586H231.376ZM225.213 96.0975L225.146 96.2129L225.087 96.179L225.08 96.1116L225.213 96.0975ZM223.93 84.0396L223.798 84.0537L223.782 83.9062H223.93V84.0396ZM231.376 84.0396V83.9062H231.41L231.441 83.9231L231.376 84.0396ZM254.28 96.7924L254.345 96.6759L254.423 96.7194L254.413 96.808L254.28 96.7924ZM253.891 100.094L254.024 100.109L254.02 100.139L254.005 100.164L253.891 100.094ZM248.013 109.655L248.127 109.725L248.113 109.746L248.093 109.762L248.013 109.655ZM231.242 122.124V99.6586H231.509V122.124H231.242ZM231.309 99.7741L225.146 96.2129L225.279 95.982L231.443 99.5432L231.309 99.7741ZM225.08 96.1116L223.798 84.0537L224.063 84.0255L225.345 96.0834L225.08 96.1116ZM223.93 83.9062H231.376V84.1729H223.93V83.9062ZM231.441 83.9231L254.345 96.6759L254.216 96.9089L231.311 84.1561L231.441 83.9231ZM254.413 96.808L254.024 100.109L253.759 100.078L254.148 96.7768L254.413 96.808ZM254.005 100.164L248.127 109.725L247.9 109.585L253.778 100.024L254.005 100.164ZM248.093 109.762L231.456 122.23L231.296 122.017L247.933 109.548L248.093 109.762Z" fill="#93C5FD" mask="url(#path-125-inside-41_59_567)"/>
<path d="M231.443 121.873L238.822 108.949V96.3306L231.443 99.7015V121.873Z" fill="white" stroke="#93C5FD" stroke-width="0.133333"/>
<path d="M216.55 91.17V113.48L231.309 122.008V99.6971L216.55 91.17Z" fill="#1D4ED8" stroke="#93C5FD" stroke-width="0.133333"/>
<path d="M240.817 92.6285L224.207 83.0311L212.682 89.477L229.291 99.0744L240.817 92.6285Z" fill="#B6625D" stroke="#93C5FD" stroke-width="0.133333"/>
<path d="M240.817 91.8828L224.207 82.2854L212.682 88.7313L229.291 98.3298L240.817 91.8828Z" fill="white" stroke="#93C5FD" stroke-width="0.133333"/>
<path d="M229.384 99.176L230.434 100.865L238.841 96.1773L240.774 92.806L229.384 99.176Z" fill="#1E3A8A" stroke="#93C5FD" stroke-width="0.133333"/>
<path d="M229.243 99.2014L212.745 89.668L213.715 91.2285L230.214 100.763L229.243 99.2014Z" fill="#1E3A8A" stroke="#93C5FD" stroke-width="0.133333"/>
<mask id="path-133-inside-42_59_567" fill="white">
<path d="M229.291 99.1511V98.4058L240.952 91.883V92.6295L229.291 99.1511Z"/>
</mask>
<path d="M229.291 99.1511V98.4058L240.952 91.883V92.6295L229.291 99.1511Z" fill="#2563EB"/>
<path d="M229.291 98.4058H229.158V98.3276L229.226 98.2894L229.291 98.4058ZM240.952 91.883L240.887 91.7667L241.085 91.6557V91.883H240.952ZM240.952 92.6295H241.085V92.7077L241.017 92.7458L240.952 92.6295ZM229.158 99.1511V98.4058H229.424V99.1511H229.158ZM229.226 98.2894L240.887 91.7667L241.017 91.9994L229.356 98.5222L229.226 98.2894ZM241.085 91.883V92.6295H240.819V91.883H241.085ZM241.017 92.7458L229.356 99.2675L229.226 99.0348L240.887 92.5131L241.017 92.7458Z" fill="#93C5FD" mask="url(#path-133-inside-42_59_567)"/>
<mask id="path-135-inside-43_59_567" fill="white">
<path d="M229.291 99.1511V98.4058L212.547 88.7296V89.4761L229.291 99.1511Z"/>
</mask>
<path d="M229.291 99.1511V98.4058L212.547 88.7296V89.4761L229.291 99.1511Z" fill="#2563EB"/>
<path d="M229.291 98.4058L229.358 98.2903L229.424 98.3288V98.4058H229.291ZM212.547 88.7296H212.414V88.4986L212.614 88.6142L212.547 88.7296ZM212.547 89.4761L212.481 89.5915L212.414 89.553V89.4761H212.547ZM229.158 99.1511V98.4058H229.424V99.1511H229.158ZM229.224 98.5212L212.481 88.8451L212.614 88.6142L229.358 98.2903L229.224 98.5212ZM212.681 88.7296V89.4761H212.414V88.7296H212.681ZM212.614 89.3606L229.358 99.0357L229.224 99.2666L212.481 89.5915L212.614 89.3606Z" fill="#93C5FD" mask="url(#path-135-inside-43_59_567)"/>
<path d="M229.988 120.095V102.425L217.874 95.4354V113.106L229.988 120.095Z" fill="#1E3A8A" stroke="#93C5FD" stroke-width="0.133333"/>
<path d="M228.552 103.253L219.309 97.9269V112.278L228.552 117.604V103.253Z" fill="white" stroke="#93C5FD" stroke-width="0.133333"/>
<mask id="path-139-inside-44_59_567" fill="white">
<path d="M220.858 98.7443V111.63L228.619 116.098V117.719L219.242 112.318V97.8115L220.858 98.7443Z"/>
</mask>
<path d="M220.858 98.7443V111.63L228.619 116.098V117.719L219.242 112.318V97.8115L220.858 98.7443Z" fill="#1D4ED8"/>
<path d="M220.858 111.63L220.791 111.745L220.724 111.707V111.63H220.858ZM228.619 116.098L228.686 115.983L228.752 116.021V116.098H228.619ZM228.619 117.719H228.752V117.95L228.553 117.835L228.619 117.719ZM219.242 112.318L219.176 112.434L219.109 112.395V112.318H219.242ZM219.242 97.8115H219.109V97.5806L219.309 97.696L219.242 97.8115ZM220.991 98.7443V111.63H220.724V98.7443H220.991ZM220.924 111.514L228.686 115.983L228.553 116.214L220.791 111.745L220.924 111.514ZM228.752 116.098V117.719H228.486V116.098H228.752ZM228.553 117.835L219.176 112.434L219.309 112.202L228.686 117.604L228.553 117.835ZM219.109 112.318V97.8115H219.376V112.318H219.109ZM219.309 97.696L220.924 98.6288L220.791 98.8597L219.176 97.927L219.309 97.696Z" fill="#93C5FD" mask="url(#path-139-inside-44_59_567)"/>
<mask id="path-141-inside-45_59_567" fill="white">
<path d="M220.858 111.63L219.242 112.318L228.619 117.719V116.098L220.858 111.63Z"/>
</mask>
<path d="M220.858 111.63L219.242 112.318L228.619 117.719V116.098L220.858 111.63Z" fill="#93C5FD"/>
<path d="M219.242 112.318L219.176 112.434L218.944 112.3L219.19 112.195L219.242 112.318ZM228.619 117.719H228.752V117.95L228.553 117.835L228.619 117.719ZM228.619 116.098L228.686 115.983L228.752 116.021V116.098H228.619ZM220.91 111.752L219.294 112.441L219.19 112.195L220.806 111.507L220.91 111.752ZM219.309 112.202L228.686 117.604L228.553 117.835L219.176 112.434L219.309 112.202ZM228.486 117.719V116.098H228.752V117.719H228.486ZM228.553 116.214L220.791 111.745L220.924 111.514L228.686 115.983L228.553 116.214Z" fill="#93C5FD" mask="url(#path-141-inside-45_59_567)"/>
<mask id="path-143-inside-46_59_567" fill="white">
<path d="M222.052 112.319H219.242L220.858 111.63V98.7448L222.084 99.4496L222.052 112.319Z"/>
</mask>
<path d="M222.052 112.319H219.242L220.858 111.63V98.7448L222.084 99.4496L222.052 112.319Z" fill="#1D4ED8"/>
<path d="M219.242 112.319V112.452L219.19 112.196L219.242 112.319ZM220.858 111.63H220.991V111.718L220.91 111.753L220.858 111.63ZM220.858 98.7448H220.724V98.5145L220.924 98.6292L220.858 98.7448ZM222.084 99.4496L222.151 99.334L222.218 99.3726L222.218 99.4499L222.084 99.4496ZM222.052 112.452H219.242V112.185H222.052V112.452ZM219.19 112.196L220.806 111.508L220.91 111.753L219.294 112.441L219.19 112.196ZM220.724 111.63V98.7448H220.991V111.63H220.724ZM220.924 98.6292L222.151 99.334L222.018 99.5652L220.791 98.8605L220.924 98.6292ZM222.218 99.4499L222.186 112.319L221.919 112.318L221.951 99.4493L222.218 99.4499Z" fill="#93C5FD" mask="url(#path-143-inside-46_59_567)"/>
<mask id="path-145-inside-47_59_567" fill="white">
<path d="M262.833 140.135L257.493 121.856L255.387 102.05H262.833L285.738 114.803L285.348 118.105L279.469 127.666L262.833 140.135Z"/>
</mask>
<path d="M262.833 140.135L257.493 121.856L255.387 102.05H262.833L285.738 114.803L285.348 118.105L279.469 127.666L262.833 140.135Z" fill="#1E3A8A"/>
<path d="M257.493 121.856L257.365 121.894L257.361 121.882L257.36 121.87L257.493 121.856ZM255.387 102.05L255.255 102.064L255.239 101.917H255.387V102.05ZM262.833 102.05V101.917H262.867L262.898 101.934L262.833 102.05ZM285.738 114.803L285.802 114.687L285.88 114.73L285.87 114.819L285.738 114.803ZM285.348 118.105L285.481 118.12L285.477 118.149L285.462 118.174L285.348 118.105ZM279.469 127.666L279.583 127.735L279.569 127.757L279.549 127.772L279.469 127.666ZM262.705 140.172L257.365 121.894L257.621 121.819L262.961 140.097L262.705 140.172ZM257.36 121.87L255.255 102.064L255.52 102.036L257.625 121.842L257.36 121.87ZM255.387 101.917H262.833V102.184H255.387V101.917ZM262.898 101.934L285.802 114.687L285.673 114.92L262.768 102.167L262.898 101.934ZM285.87 114.819L285.481 118.12L285.216 118.089L285.605 114.788L285.87 114.819ZM285.462 118.174L279.583 127.735L279.356 127.596L285.235 118.035L285.462 118.174ZM279.549 127.772L262.913 140.241L262.753 140.028L279.389 127.559L279.549 127.772Z" fill="#93C5FD" mask="url(#path-145-inside-47_59_567)"/>
<path d="M262.9 139.883L270.278 126.96V114.34L262.9 117.713V139.883Z" fill="white" stroke="#93C5FD" stroke-width="0.133333"/>
<path d="M248.007 109.181V131.491L262.767 140.019V117.709L248.007 109.181Z" fill="#1D4ED8" stroke="#93C5FD" stroke-width="0.133333"/>
<path d="M272.273 110.643L255.664 101.044L244.138 107.49L260.749 117.088L272.273 110.643Z" fill="#B6625D" stroke="#93C5FD" stroke-width="0.133333"/>
<path d="M272.273 109.894L255.664 100.296L244.138 106.742L260.749 116.34L272.273 109.894Z" fill="white" stroke="#93C5FD" stroke-width="0.133333"/>
<path d="M260.842 117.188L261.89 118.876L270.297 114.188L272.23 110.819L260.842 117.188Z" fill="#1E3A8A" stroke="#93C5FD" stroke-width="0.133333"/>
<path d="M260.7 117.213L244.201 107.679L245.17 109.24L261.67 118.775L260.7 117.213Z" fill="#1E3A8A" stroke="#93C5FD" stroke-width="0.133333"/>
<path d="M272.341 110.01L260.815 116.457V117.051L272.341 110.605V110.01Z" fill="#2563EB" stroke="#93C5FD" stroke-width="0.133333"/>
<path d="M244.07 107.451L260.681 117.049V116.456L244.07 106.858V107.451Z" fill="#2563EB" stroke="#93C5FD" stroke-width="0.133333"/>
<path d="M261.444 138.107V120.437L249.329 113.448V131.118L261.444 138.107Z" fill="#1E3A8A" stroke="#93C5FD" stroke-width="0.133333"/>
<path d="M260.008 121.265L250.765 115.939V130.291L260.008 135.616V121.265Z" fill="white" stroke="#93C5FD" stroke-width="0.133333"/>
<mask id="path-157-inside-48_59_567" fill="white">
<path d="M252.314 116.756V129.643L260.075 134.111V135.732L250.698 130.33V115.824L252.314 116.756Z"/>
</mask>
<path d="M252.314 116.756V129.643L260.075 134.111V135.732L250.698 130.33V115.824L252.314 116.756Z" fill="#1D4ED8"/>
<path d="M252.314 129.643L252.247 129.759L252.181 129.72V129.643H252.314ZM260.075 134.111L260.142 133.995L260.208 134.033V134.111H260.075ZM260.075 135.732H260.208V135.962L260.008 135.847L260.075 135.732ZM250.698 130.33L250.632 130.446L250.565 130.407V130.33H250.698ZM250.698 115.824H250.565V115.593L250.765 115.708L250.698 115.824ZM252.447 116.756V129.643H252.181V116.756H252.447ZM252.38 129.527L260.142 133.995L260.009 134.226L252.247 129.759L252.38 129.527ZM260.208 134.111V135.732H259.942V134.111H260.208ZM260.008 135.847L250.632 130.446L250.765 130.215L260.142 135.616L260.008 135.847ZM250.565 130.33V115.824H250.832V130.33H250.565ZM250.765 115.708L252.381 116.641L252.247 116.872L250.632 115.939L250.765 115.708Z" fill="#93C5FD" mask="url(#path-157-inside-48_59_567)"/>
<mask id="path-159-inside-49_59_567" fill="white">
<path d="M252.314 129.643L250.698 130.33L260.075 135.732V134.111L252.314 129.643Z"/>
</mask>
<path d="M252.314 129.643L250.698 130.33L260.075 135.732V134.111L252.314 129.643Z" fill="#93C5FD"/>
<path d="M250.698 130.33L250.632 130.446L250.4 130.312L250.646 130.208L250.698 130.33ZM260.075 135.732H260.208V135.962L260.008 135.847L260.075 135.732ZM260.075 134.111L260.142 133.995L260.208 134.033V134.111H260.075ZM252.366 129.766L250.75 130.453L250.646 130.208L252.262 129.52L252.366 129.766ZM250.765 130.215L260.142 135.616L260.008 135.847L250.632 130.446L250.765 130.215ZM259.942 135.732V134.111H260.208V135.732H259.942ZM260.009 134.226L252.247 129.759L252.38 129.527L260.142 133.995L260.009 134.226Z" fill="#93C5FD" mask="url(#path-159-inside-49_59_567)"/>
<mask id="path-161-inside-50_59_567" fill="white">
<path d="M250.698 130.329H253.51L253.541 117.46L252.314 116.756V129.642L250.698 130.329Z"/>
</mask>
<path d="M250.698 130.329H253.51L253.541 117.46L252.314 116.756V129.642L250.698 130.329Z" fill="#1D4ED8"/>
<path d="M253.51 130.329L253.643 130.33L253.643 130.463H253.51V130.329ZM253.541 117.46L253.608 117.345L253.675 117.383L253.675 117.461L253.541 117.46ZM252.314 116.756H252.18V116.525L252.38 116.64L252.314 116.756ZM252.314 129.642H252.447V129.73L252.366 129.765L252.314 129.642ZM250.698 130.196H253.51V130.463H250.698V130.196ZM253.376 130.329L253.408 117.46L253.675 117.461L253.643 130.33L253.376 130.329ZM253.475 117.576L252.247 116.871L252.38 116.64L253.608 117.345L253.475 117.576ZM252.447 116.756V129.642H252.18V116.756H252.447ZM252.366 129.765L250.75 130.452L250.646 130.207L252.262 129.519L252.366 129.765Z" fill="#93C5FD" mask="url(#path-161-inside-50_59_567)"/>
<mask id="path-163-inside-51_59_567" fill="white">
<path d="M294.29 158.147L288.95 139.869L286.843 120.063H294.29L317.194 132.815L316.804 136.117L310.924 145.678L294.29 158.147Z"/>
</mask>
<path d="M294.29 158.147L288.95 139.869L286.843 120.063H294.29L317.194 132.815L316.804 136.117L310.924 145.678L294.29 158.147Z" fill="#1E3A8A"/>
<path d="M288.95 139.869L288.822 139.906L288.819 139.895L288.817 139.883L288.95 139.869ZM286.843 120.063L286.711 120.077L286.695 119.929H286.843V120.063ZM294.29 120.063V119.929H294.325L294.355 119.946L294.29 120.063ZM317.194 132.815L317.258 132.699L317.336 132.742L317.326 132.831L317.194 132.815ZM316.804 136.117L316.937 136.132L316.933 136.162L316.918 136.187L316.804 136.117ZM310.924 145.678L311.038 145.748L311.024 145.769L311.004 145.784L310.924 145.678ZM294.162 158.184L288.822 139.906L289.078 139.831L294.418 158.109L294.162 158.184ZM288.817 139.883L286.711 120.077L286.976 120.048L289.083 139.854L288.817 139.883ZM286.843 119.929H294.29V120.196H286.843V119.929ZM294.355 119.946L317.258 132.699L317.129 132.932L294.225 120.179L294.355 119.946ZM317.326 132.831L316.937 136.132L316.672 136.101L317.061 132.8L317.326 132.831ZM316.918 136.187L311.038 145.748L310.81 145.608L316.691 136.047L316.918 136.187ZM311.004 145.784L294.37 158.253L294.21 158.04L310.844 145.571L311.004 145.784Z" fill="#93C5FD" mask="url(#path-163-inside-51_59_567)"/>
<path d="M294.356 157.896L301.734 144.973V132.354L294.356 135.726V157.896Z" fill="white" stroke="#93C5FD" stroke-width="0.133333"/>
<path d="M279.464 127.193V149.503L294.224 158.031V135.721L279.464 127.193Z" fill="#1E40AF" stroke="#93C5FD" stroke-width="0.133333"/>
<path d="M303.729 128.654L287.12 119.056L275.594 125.501L292.204 135.099L303.729 128.654Z" fill="#B6625D" stroke="#93C5FD" stroke-width="0.133333"/>
<path d="M303.729 127.908L287.12 118.309L275.594 124.755L292.204 134.353L303.729 127.908Z" fill="white" stroke="#93C5FD" stroke-width="0.133333"/>
<mask id="path-169-inside-52_59_567" fill="white">
<path d="M293.323 136.978L301.801 132.25L303.864 128.655L292.203 135.176L293.323 136.978Z"/>
</mask>
<path d="M293.323 136.978L301.801 132.25L303.864 128.655L292.203 135.176L293.323 136.978Z" fill="#1E3A8A"/>
<path d="M301.801 132.25L301.917 132.317L301.898 132.349L301.866 132.367L301.801 132.25ZM303.864 128.655L303.799 128.539L304.219 128.304L303.979 128.722L303.864 128.655ZM292.203 135.176L292.089 135.246L292.016 135.128L292.138 135.059L292.203 135.176ZM293.258 136.861L301.736 132.134L301.866 132.367L293.388 137.094L293.258 136.861ZM301.685 132.184L303.748 128.589L303.979 128.722L301.917 132.317L301.685 132.184ZM303.929 128.772L292.268 135.292L292.138 135.059L303.799 128.539L303.929 128.772ZM292.316 135.105L293.436 136.907L293.21 137.048L292.089 135.246L292.316 135.105Z" fill="#93C5FD" mask="url(#path-169-inside-52_59_567)"/>
<mask id="path-171-inside-53_59_567" fill="white">
<path d="M275.459 125.501L276.58 127.302L293.323 136.978L292.203 135.176L275.459 125.501Z"/>
</mask>
<path d="M275.459 125.501L276.58 127.302L293.323 136.978L292.203 135.176L275.459 125.501Z" fill="#1E3A8A"/>
<path d="M276.58 127.302L276.513 127.417L276.484 127.4L276.466 127.372L276.58 127.302ZM293.323 136.978L293.436 136.907L293.257 137.093L293.323 136.978ZM292.203 135.176L292.27 135.06L292.299 135.077L292.316 135.105L292.203 135.176ZM275.573 125.43L276.693 127.231L276.466 127.372L275.346 125.571L275.573 125.43ZM276.646 127.186L293.39 136.862L293.257 137.093L276.513 127.417L276.646 127.186ZM293.21 137.048L292.09 135.246L292.316 135.105L293.436 136.907L293.21 137.048ZM292.136 135.291L275.393 125.616L275.526 125.385L292.27 135.06L292.136 135.291Z" fill="#93C5FD" mask="url(#path-171-inside-53_59_567)"/>
<path d="M303.797 128.022L292.269 134.468V135.062L303.797 128.616V128.022Z" fill="#2563EB" stroke="#93C5FD" stroke-width="0.133333"/>
<mask id="path-174-inside-54_59_567" fill="white">
<path d="M292.203 135.176V134.429L275.459 124.754V125.5L292.203 135.176Z"/>
</mask>
<path d="M292.203 135.176V134.429L275.459 124.754V125.5L292.203 135.176Z" fill="#2563EB"/>
<path d="M292.203 134.429L292.27 134.314L292.336 134.352V134.429H292.203ZM275.459 124.754H275.326V124.523L275.526 124.639L275.459 124.754ZM275.459 125.5L275.393 125.616L275.326 125.577V125.5H275.459ZM292.07 135.176V134.429H292.336V135.176H292.07ZM292.136 134.545L275.393 124.87L275.526 124.639L292.27 134.314L292.136 134.545ZM275.593 124.754V125.5H275.326V124.754H275.593ZM275.526 125.385L292.27 135.06L292.136 135.291L275.393 125.616L275.526 125.385Z" fill="#93C5FD" mask="url(#path-174-inside-54_59_567)"/>
<mask id="path-176-inside-55_59_567" fill="white">
<path d="M280.718 149.169V131.343L292.967 138.41V156.234L280.718 149.169Z"/>
</mask>
<path d="M280.718 149.169V131.343L292.967 138.41V156.234L280.718 149.169Z" fill="#1E3A8A"/>
<path d="M280.718 131.343H280.585V131.113L280.785 131.228L280.718 131.343ZM292.967 138.41L293.034 138.294L293.1 138.333V138.41H292.967ZM292.967 156.234H293.1V156.465L292.9 156.35L292.967 156.234ZM280.585 149.169V131.343H280.852V149.169H280.585ZM280.785 131.228L293.034 138.294L292.9 138.525L280.652 131.459L280.785 131.228ZM293.1 138.41V156.234H292.834V138.41H293.1ZM292.9 156.35L280.652 149.284L280.785 149.053L293.034 156.119L292.9 156.35Z" fill="#93C5FD" mask="url(#path-176-inside-55_59_567)"/>
<mask id="path-178-inside-56_59_567" fill="white">
<path d="M282.154 133.836V148.341L291.531 153.743V139.238L282.154 133.836Z"/>
</mask>
<path d="M282.154 133.836V148.341L291.531 153.743V139.238L282.154 133.836Z" fill="white"/>
<path d="M282.154 148.341L282.088 148.456L282.021 148.418V148.341H282.154ZM291.531 153.743H291.665V153.974L291.465 153.859L291.531 153.743ZM291.531 139.238L291.598 139.122L291.665 139.161V139.238H291.531ZM282.288 133.836V148.341H282.021V133.836H282.288ZM282.221 148.225L291.598 153.628L291.465 153.859L282.088 148.456L282.221 148.225ZM291.398 153.743V139.238H291.665V153.743H291.398ZM291.465 139.353L282.088 133.952L282.221 133.721L291.598 139.122L291.465 139.353Z" fill="#93C5FD" mask="url(#path-178-inside-56_59_567)"/>
<mask id="path-180-inside-57_59_567" fill="white">
<path d="M283.77 134.768V147.655L291.53 152.122V153.743L282.154 148.342V133.835L283.77 134.768Z"/>
</mask>
<path d="M283.77 134.768V147.655L291.53 152.122V153.743L282.154 148.342V133.835L283.77 134.768Z" fill="#1D4ED8"/>
<path d="M283.77 147.655L283.703 147.77L283.637 147.732V147.655H283.77ZM291.53 152.122L291.597 152.007L291.664 152.045V152.122H291.53ZM291.53 153.743H291.664V153.974L291.464 153.859L291.53 153.743ZM282.154 148.342L282.088 148.457L282.021 148.419V148.342H282.154ZM282.154 133.835H282.021V133.604L282.221 133.72L282.154 133.835ZM283.903 134.768V147.655H283.637V134.768H283.903ZM283.836 147.539L291.597 152.007L291.464 152.238L283.703 147.77L283.836 147.539ZM291.664 152.122V153.743H291.397V152.122H291.664ZM291.464 153.859L282.088 148.457L282.221 148.226L291.597 153.628L291.464 153.859ZM282.021 148.342V133.835H282.288V148.342H282.021ZM282.221 133.72L283.837 134.653L283.703 134.884L282.088 133.951L282.221 133.72Z" fill="#93C5FD" mask="url(#path-180-inside-57_59_567)"/>
<path d="M283.765 147.729L282.303 148.351L291.464 153.628V152.161L283.765 147.729Z" fill="#93C5FD" stroke="#93C5FD" stroke-width="0.133333"/>
<mask id="path-183-inside-58_59_567" fill="white">
<path d="M282.154 148.342H284.966L284.996 135.473L283.77 134.768V147.654L282.154 148.342Z"/>
</mask>
<path d="M282.154 148.342H284.966L284.996 135.473L283.77 134.768V147.654L282.154 148.342Z" fill="#1D4ED8"/>
<path d="M284.966 148.342L285.099 148.342L285.099 148.475H284.966V148.342ZM284.996 135.473L285.063 135.357L285.13 135.396L285.13 135.473L284.996 135.473ZM283.77 134.768H283.637V134.537L283.836 134.652L283.77 134.768ZM283.77 147.654H283.903V147.742L283.822 147.777L283.77 147.654ZM282.154 148.208H284.966V148.475H282.154V148.208ZM284.832 148.341L284.863 135.472L285.13 135.473L285.099 148.342L284.832 148.341ZM284.93 135.588L283.704 134.883L283.836 134.652L285.063 135.357L284.93 135.588ZM283.903 134.768V147.654H283.637V134.768H283.903ZM283.822 147.777L282.206 148.464L282.102 148.219L283.718 147.532L283.822 147.777Z" fill="#93C5FD" mask="url(#path-183-inside-58_59_567)"/>
<defs>
<linearGradient id="paint0_linear_59_567" x1="211.806" y1="80.0934" x2="211.806" y2="189.715" gradientUnits="userSpaceOnUse">
<stop stop-color="#F7F7FD"/>
<stop offset="1" stop-color="#93C5FD"/>
</linearGradient>
<linearGradient id="paint1_linear_59_567" x1="211.807" y1="80.0952" x2="211.807" y2="189.717" gradientUnits="userSpaceOnUse">
<stop stop-color="#FFFCF7"/>
<stop offset="1" stop-color="#93C5FD"/>
</linearGradient>
<linearGradient id="paint2_linear_59_567" x1="211.806" y1="80.0936" x2="211.806" y2="189.715" gradientUnits="userSpaceOnUse">
<stop stop-color="#0850A1"/>
<stop offset="1" stop-color="#074CA1"/>
</linearGradient>
</defs>
</svg>
