<svg width="20" height="20" viewBox="0 0 20 20" fill="none" xmlns="http://www.w3.org/2000/svg">
<path d="M14.1666 17.0833H5.83329C3.33329 17.0833 1.66663 15.8333 1.66663 12.9166V7.08329C1.66663 4.16663 3.33329 2.91663 5.83329 2.91663H14.1666C16.6666 2.91663 18.3333 4.16663 18.3333 7.08329V12.9166C18.3333 15.8333 16.6666 17.0833 14.1666 17.0833Z" stroke="#01002B" stroke-width="2" stroke-miterlimit="10" stroke-linecap="round" stroke-linejoin="round"/>
<path d="M10 12.5C11.3807 12.5 12.5 11.3807 12.5 10C12.5 8.61929 11.3807 7.5 10 7.5C8.61929 7.5 7.5 8.61929 7.5 10C7.5 11.3807 8.61929 12.5 10 12.5Z" stroke="#01002B" stroke-width="2" stroke-miterlimit="10" stroke-linecap="round" stroke-linejoin="round"/>
<path d="M4.58337 7.91663V12.0833" stroke="#01002B" stroke-width="2" stroke-miterlimit="10" stroke-linecap="round" stroke-linejoin="round"/>
<path d="M15.4166 7.91663V12.0833" stroke="#01002B" stroke-width="2" stroke-miterlimit="10" stroke-linecap="round" stroke-linejoin="round"/>
</svg>
