<svg width="20" height="20" viewBox="0 0 20 20" fill="none" xmlns="http://www.w3.org/2000/svg">
<g clip-path="url(#clip0_83_56)">
<path d="M17.2604 6.56836L11.7052 2.25151C11.2177 1.87259 10.6176 1.66687 9.99996 1.66687C9.3823 1.66687 8.78226 1.87259 8.29475 2.25151L2.7385 6.56836C2.40459 6.82779 2.13443 7.16002 1.94866 7.5397C1.76289 7.91937 1.66643 8.33643 1.66663 8.75904V16.2521C1.66663 16.8041 1.88612 17.3336 2.27682 17.7239C2.66752 18.1142 3.19743 18.3335 3.74996 18.3335H16.25C16.8025 18.3335 17.3324 18.1142 17.7231 17.7239C18.1138 17.3336 18.3333 16.8041 18.3333 16.2521V8.75904C18.3333 7.90254 17.9375 7.09391 17.2604 6.56836Z" stroke="#01002B" stroke-width="2" stroke-linecap="round" stroke-linejoin="round"/>
</g>
<defs>
<clipPath id="clip0_83_56">
<rect width="20" height="20" fill="white"/>
</clipPath>
</defs>
</svg>
